<svg preserveAspectRatio="none" width="100%" height="100%" overflow="visible" style="display: block;" viewBox="0 0 38 38" fill="none" xmlns="http://www.w3.org/2000/svg">
<g id="Group 211">
<circle id="Ellipse 12" opacity="0.1" cx="19" cy="19" r="19" fill="url(#paint0_linear_0_8)"/>
<g id="distance">
<mask id="mask0_0_8" style="mask-type:alpha" maskUnits="userSpaceOnUse" x="7" y="7" width="24" height="24">
<rect id="Bounding box" x="7" y="7" width="24" height="24" fill="var(--fill-0, #D9D9D9)"/>
</mask>
<g mask="url(#mask0_0_8)">
<path id="distance_2" d="M14.675 28.1625C13.5583 27.6042 13 26.8833 13 26C13 25.6 13.1208 25.2292 13.3625 24.8875C13.6042 24.5458 13.9417 24.25 14.375 24L15.95 25.475C15.8 25.5417 15.6375 25.6167 15.4625 25.7C15.2875 25.7833 15.15 25.8833 15.05 26C15.2667 26.2667 15.7667 26.5 16.55 26.7C17.3333 26.9 18.15 27 19 27C19.85 27 20.6708 26.9 21.4625 26.7C22.2542 26.5 22.7583 26.2667 22.975 26C22.8583 25.8667 22.7083 25.7583 22.525 25.675C22.3417 25.5917 22.1667 25.5167 22 25.45L23.55 23.95C24.0167 24.2167 24.375 24.5208 24.625 24.8625C24.875 25.2042 25 25.5833 25 26C25 26.8833 24.4417 27.6042 23.325 28.1625C22.2083 28.7208 20.7667 29 19 29C17.2333 29 15.7917 28.7208 14.675 28.1625ZM19.025 23.5C20.675 22.2833 21.9167 21.0625 22.75 19.8375C23.5833 18.6125 24 17.3833 24 16.15C24 14.45 23.4583 13.1667 22.375 12.3C21.2917 11.4333 20.1667 11 19 11C17.8333 11 16.7083 11.4333 15.625 12.3C14.5417 13.1667 14 14.45 14 16.15C14 17.2667 14.4083 18.4292 15.225 19.6375C16.0417 20.8458 17.3083 22.1333 19.025 23.5ZM19 26C16.65 24.2667 14.8958 22.5833 13.7375 20.95C12.5792 19.3167 12 17.7167 12 16.15C12 14.9667 12.2125 13.9292 12.6375 13.0375C13.0625 12.1458 13.6083 11.4 14.275 10.8C14.9417 10.2 15.6917 9.75 16.525 9.45C17.3583 9.15 18.1833 9 19 9C19.8167 9 20.6417 9.15 21.475 9.45C22.3083 9.75 23.0583 10.2 23.725 10.8C24.3917 11.4 24.9375 12.1458 25.3625 13.0375C25.7875 13.9292 26 14.9667 26 16.15C26 17.7167 25.4208 19.3167 24.2625 20.95C23.1042 22.5833 21.35 24.2667 19 26ZM19 18C19.55 18 20.0208 17.8042 20.4125 17.4125C20.8042 17.0208 21 16.55 21 16C21 15.45 20.8042 14.9792 20.4125 14.5875C20.0208 14.1958 19.55 14 19 14C18.45 14 17.9792 14.1958 17.5875 14.5875C17.1958 14.9792 17 15.45 17 16C17 16.55 17.1958 17.0208 17.5875 17.4125C17.9792 17.8042 18.45 18 19 18Z" fill="url(#paint1_linear_0_8)"/>
</g>
</g>
</g>
<defs>
<linearGradient id="paint0_linear_0_8" x1="0" y1="19" x2="38" y2="19" gradientUnits="userSpaceOnUse">
<stop stop-color="#F47920"/>
<stop offset="0.5" stop-color="#C756D9"/>
<stop offset="1" stop-color="#3182FC"/>
</linearGradient>
<linearGradient id="paint1_linear_0_8" x1="12" y1="19" x2="26" y2="19" gradientUnits="userSpaceOnUse">
<stop stop-color="#F47920"/>
<stop offset="0.5" stop-color="#C756D9"/>
<stop offset="1" stop-color="#3182FC"/>
</linearGradient>
</defs>
</svg>
