<svg preserveAspectRatio="none" width="100%" height="100%" overflow="visible" style="display: block;" viewBox="0 0 38 38" fill="none" xmlns="http://www.w3.org/2000/svg">
<g id="Group 212">
<circle id="Ellipse 11" opacity="0.1" cx="19" cy="19" r="19" fill="url(#paint0_linear_0_16)"/>
<g id="mail">
<mask id="mask0_0_16" style="mask-type:alpha" maskUnits="userSpaceOnUse" x="8" y="8" width="22" height="22">
<rect id="Bounding box" x="8" y="8" width="22" height="22" fill="var(--fill-0, #D9D9D9)"/>
</mask>
<g mask="url(#mask0_0_16)">
<path id="mail_2" d="M11.6615 26.3346C11.1573 26.3346 10.7257 26.1551 10.3667 25.7961C10.0076 25.4371 9.82812 25.0055 9.82812 24.5013V13.5013C9.82812 12.9971 10.0076 12.5655 10.3667 12.2065C10.7257 11.8475 11.1573 11.668 11.6615 11.668H26.3281C26.8323 11.668 27.2639 11.8475 27.6229 12.2065C27.9819 12.5655 28.1615 12.9971 28.1615 13.5013V24.5013C28.1615 25.0055 27.9819 25.4371 27.6229 25.7961C27.2639 26.1551 26.8323 26.3346 26.3281 26.3346H11.6615ZM18.9948 19.918L11.6615 15.3346V24.5013H26.3281V15.3346L18.9948 19.918ZM18.9948 18.0846L26.3281 13.5013H11.6615L18.9948 18.0846ZM11.6615 15.3346V13.5013V24.5013V15.3346Z" fill="url(#paint1_linear_0_16)"/>
</g>
</g>
</g>
<defs>
<linearGradient id="paint0_linear_0_16" x1="0" y1="19" x2="38" y2="19" gradientUnits="userSpaceOnUse">
<stop stop-color="#F47920"/>
<stop offset="0.5" stop-color="#C756D9"/>
<stop offset="1" stop-color="#3182FC"/>
</linearGradient>
<linearGradient id="paint1_linear_0_16" x1="9.82812" y1="19.0013" x2="28.1615" y2="19.0013" gradientUnits="userSpaceOnUse">
<stop stop-color="#F47920"/>
<stop offset="0.5" stop-color="#C756D9"/>
<stop offset="1" stop-color="#3182FC"/>
</linearGradient>
</defs>
</svg>
