<svg preserveAspectRatio="none" width="100%" height="100%" overflow="visible" style="display: block;" viewBox="0 0 38 38" fill="none" xmlns="http://www.w3.org/2000/svg">
<g id="Group 213">
<circle id="Ellipse 10" opacity="0.1" cx="19" cy="19" r="19" fill="url(#paint0_linear_0_21)"/>
<g id="call">
<mask id="mask0_0_21" style="mask-type:alpha" maskUnits="userSpaceOnUse" x="8" y="8" width="22" height="22">
<rect id="Bounding box" x="8" y="8" width="22" height="22" fill="var(--fill-0, #D9D9D9)"/>
</mask>
<g mask="url(#mask0_0_21)">
<path id="call_2" d="M26.2875 27.25C24.3778 27.25 22.491 26.8337 20.6271 26.001C18.7632 25.1684 17.0674 23.9882 15.5396 22.4604C14.0118 20.9326 12.8316 19.2368 11.999 17.3729C11.1663 15.509 10.75 13.6222 10.75 11.7125C10.75 11.4375 10.8417 11.2083 11.025 11.025C11.2083 10.8417 11.4375 10.75 11.7125 10.75H15.425C15.6389 10.75 15.8299 10.8226 15.9979 10.9677C16.166 11.1128 16.2653 11.2847 16.2958 11.4833L16.8917 14.6917C16.9222 14.9361 16.9146 15.1424 16.8688 15.3104C16.8229 15.4785 16.7389 15.6236 16.6167 15.7458L14.3938 17.9917C14.6993 18.5569 15.0622 19.1031 15.4823 19.6302C15.9024 20.1573 16.3646 20.6653 16.8688 21.1542C17.3424 21.6278 17.8389 22.067 18.3583 22.4719C18.8778 22.8767 19.4278 23.2472 20.0083 23.5833L22.1625 21.4292C22.3 21.2917 22.4795 21.1885 22.701 21.1198C22.9226 21.051 23.1403 21.0319 23.3542 21.0625L26.5167 21.7042C26.7306 21.7653 26.9062 21.876 27.0438 22.0365C27.1813 22.1969 27.25 22.3764 27.25 22.575V26.2875C27.25 26.5625 27.1583 26.7917 26.975 26.975C26.7917 27.1583 26.5625 27.25 26.2875 27.25ZM13.5229 16.25L15.0354 14.7375L14.6458 12.5833H12.6063C12.6826 13.2097 12.7896 13.8285 12.9271 14.4396C13.0646 15.0507 13.2632 15.6542 13.5229 16.25ZM21.7271 24.4542C22.3229 24.7139 22.9302 24.9201 23.549 25.0729C24.1677 25.2257 24.7903 25.325 25.4167 25.3708V23.3542L23.2625 22.9188L21.7271 24.4542Z" fill="url(#paint1_linear_0_21)"/>
</g>
</g>
</g>
<defs>
<linearGradient id="paint0_linear_0_21" x1="0" y1="19" x2="38" y2="19" gradientUnits="userSpaceOnUse">
<stop stop-color="#F47920"/>
<stop offset="0.5" stop-color="#C756D9"/>
<stop offset="1" stop-color="#3182FC"/>
</linearGradient>
<linearGradient id="paint1_linear_0_21" x1="10.75" y1="19" x2="27.25" y2="19" gradientUnits="userSpaceOnUse">
<stop stop-color="#F47920"/>
<stop offset="0.5" stop-color="#C756D9"/>
<stop offset="1" stop-color="#3182FC"/>
</linearGradient>
</defs>
</svg>
