<svg preserveAspectRatio="none" width="100%" height="100%" overflow="visible" style="display: block;" viewBox="0 0 60 52" fill="none" xmlns="http://www.w3.org/2000/svg">
<g id="158617501_bbefa3bb-8c9b-458c-b912-e914a03a6755 1" clip-path="url(#clip0_0_8)">
<path id="Vector" d="M30.4248 26.1044L17.4213 36.4303L17.3699 37.1063L19.8873 50.6139C20.2052 52.3195 22.5549 52.4905 23.1111 50.8484L26.8713 39.7453H28.1442L59.9142 2.70833L59.7085 2.85133L34.9258 22.5305C33.6689 23.9914 32.1425 25.2093 30.4248 26.1044Z" fill="var(--fill-0, #2F8E33)"/>
<path id="Vector_2" d="M33.3513 41.4483L26.8456 39.7453L22.5385 51.6663L33.3513 41.4483Z" fill="var(--fill-0, #257829)"/>
<path id="Vector_3" d="M26.8456 39.7453L59.9142 2.70833L53.4231 45.763C53.1812 47.3675 51.5607 48.3583 50.0433 47.8295L26.8456 39.7453Z" fill="var(--fill-0, #4BAE4F)"/>
<path id="Vector_4" d="M23.4943 27.7983C31.8591 27.7983 38.64 20.9421 38.64 12.4843C38.64 12.2189 38.6333 11.955 38.6202 11.6929L59.9142 2.70833L17.3699 37.1453L1.22289 30.8707C-0.29297 30.2816 -0.323055 28.1244 1.17532 27.4923L12.2991 22.7988C15.069 25.8707 19.0591 27.7983 23.4943 27.7983Z" fill="var(--fill-0, #69CC6D)"/>
<g id="Group" opacity="0.35">
<path id="Vector_5" d="M30.1188 26.2597C35.1637 23.7748 38.64 18.54 38.64 12.4843C38.64 12.2189 38.6333 11.9552 38.6202 11.6932L59.9142 2.70833L57.1409 21.1041C48.4397 23.4374 39.0805 25.0876 30.1188 26.2597Z" fill="var(--fill-0, white)"/>
<path id="Vector_6" d="M20.0725 27.406C17.0277 26.6949 14.3341 25.0556 12.2991 22.7988L1.17557 27.4923C0.559458 27.7521 0.202027 28.2695 0.0994273 28.8298C5.6406 28.5737 12.5426 28.1465 20.0725 27.406Z" fill="var(--fill-0, white)"/>
</g>
<path id="Vector_7" d="M23.7257 12.7183C23.7257 19.5964 23.7257 20.3454 23.7257 25.1723C16.9233 25.1723 11.4086 19.5964 11.4086 12.7183C11.4086 5.84029 16.9233 0.264331 23.7257 0.264331C23.7257 4.94329 23.7257 5.84029 23.7257 12.7183Z" fill="var(--fill-0, #4BAE4F)"/>
<path id="Vector_8" d="M23.7257 12.7183C23.7257 19.5964 23.7257 20.3454 23.7257 25.1723C30.5282 25.1723 36.0429 19.5964 36.0429 12.7183C36.0429 5.84029 30.5282 0.264331 23.7257 0.264331C23.7257 4.94329 23.7257 5.84029 23.7257 12.7183Z" fill="var(--fill-0, #73D077)"/>
<path id="Vector_9" d="M23.7257 12.7181C23.7257 17.968 23.7257 18.5397 23.7257 22.2239C18.5335 22.2239 14.3246 17.968 14.3246 12.7181C14.3246 7.46841 18.5335 3.21247 23.7257 3.21247C23.7257 6.78383 23.7257 7.46841 23.7257 12.7181Z" fill="var(--fill-0, #E5FBF4)"/>
<path id="Vector_10" d="M23.7257 12.7181C23.7257 17.968 23.7257 18.5397 23.7257 22.2239C28.9179 22.2239 33.1269 17.968 33.1269 12.7181C33.1269 7.46841 28.9179 3.21247 23.7257 3.21247C23.7257 6.78383 23.7257 7.46841 23.7257 12.7181Z" fill="var(--fill-0, #D3F1E8)"/>
<path id="Vector_11" d="M22.0522 14.2009L27.1177 9.08353C27.3175 8.88177 27.5543 8.78063 27.8277 8.78063C28.1013 8.78063 28.3381 8.88177 28.5379 9.08353C28.7377 9.28555 28.8377 9.52475 28.8377 9.80087C28.8377 10.0773 28.7377 10.3164 28.5379 10.5182L22.7625 16.3529C22.5627 16.5549 22.3258 16.6558 22.0522 16.6558C21.7789 16.6558 21.5421 16.5549 21.3423 16.3529L18.6597 13.6429C18.4597 13.4409 18.3599 13.2019 18.3599 12.9255C18.3599 12.6492 18.4597 12.41 18.6597 12.2082C18.8595 12.0062 19.0964 11.9053 19.3697 11.9053C19.6433 11.9053 19.8799 12.0062 20.0799 12.2082L22.0522 14.2009Z" fill="var(--fill-0, #4BAE4F)"/>
</g>
<defs>
<clipPath id="clip0_0_8">
<rect width="60" height="52" fill="white"/>
</clipPath>
</defs>
</svg>
