<svg preserveAspectRatio="none" width="100%" height="100%" overflow="visible" style="display: block;" viewBox="0 0 40 40" fill="none" xmlns="http://www.w3.org/2000/svg">
<g id="mobile-banking_7857749 1" opacity="0.8">
<path id="Vector" d="M17.5 38.125H8.75C8.4 38.125 8.125 37.85 8.125 37.5V31.25C8.125 30.9 8.4 30.625 8.75 30.625C9.1 30.625 9.375 30.9 9.375 31.25V36.875H17.5C17.85 36.875 18.125 37.15 18.125 37.5C18.125 37.85 17.85 38.125 17.5 38.125Z" fill="var(--fill-0, #2C1D44)"/>
<path id="Vector_2" fill-rule="evenodd" clip-rule="evenodd" d="M20 36.875C20.35 36.875 20.625 37.15 20.625 37.5C20.625 37.85 20.35 38.125 20 38.125C19.65 38.125 19.375 37.85 19.375 37.5C19.375 37.15 19.65 36.875 20 36.875Z" fill="var(--fill-0, #2C1D44)"/>
<path id="Vector_3" d="M31.25 38.125H22.5C22.15 38.125 21.875 37.85 21.875 37.5C21.875 37.15 22.15 36.875 22.5 36.875H30.625V31.25C30.625 30.9 30.9 30.625 31.25 30.625C31.6 30.625 31.875 30.9 31.875 31.25V37.5C31.875 37.85 31.6 38.125 31.25 38.125Z" fill="var(--fill-0, #2C1D44)"/>
<path id="Vector_4" d="M28.75 35.625H11.25C10.9 35.625 10.625 35.35 10.625 35V32.5C10.625 32.15 10.9 31.875 11.25 31.875H28.75C29.1 31.875 29.375 32.15 29.375 32.5V35C29.375 35.35 29.1 35.625 28.75 35.625ZM11.875 34.375H28.125V33.125H11.875V34.375Z" fill="var(--fill-0, #2C1D44)"/>
<path id="Vector_5" fill-rule="evenodd" clip-rule="evenodd" d="M21.7625 3.125C21.5 3.85 20.8125 4.375 19.9875 4.375C19.1625 4.375 18.475 3.85 18.225 3.125H21.7625ZM16.9375 3.125H9.375V6.25C9.375 6.6 9.1 6.875 8.75 6.875C8.4 6.875 8.125 6.6 8.125 6.25V2.5C8.125 2.15 8.4 1.875 8.75 1.875H31.25C31.6 1.875 31.875 2.15 31.875 2.5V6.25C31.875 6.6 31.6 6.875 31.25 6.875C30.9 6.875 30.625 6.6 30.625 6.25V3.125H23.0625C22.775 4.55 21.5125 5.625 20 5.625C18.4875 5.625 17.225 4.55 16.9375 3.125Z" fill="var(--fill-0, #2C1D44)"/>
<path id="Vector_6" d="M35.6266 8.125C34.9391 8.125 34.3766 8.6875 34.3766 9.375C34.3766 10.0625 34.9391 10.625 35.6266 10.625C36.3141 10.625 36.8766 10.0625 36.8766 9.375C36.8766 8.6875 36.3141 8.125 35.6266 8.125ZM4.37656 8.125C3.68906 8.125 3.12656 8.6875 3.12656 9.375C3.12656 10.0625 3.68906 10.625 4.37656 10.625C5.06406 10.625 5.62656 10.0625 5.62656 9.375C5.62656 8.6875 5.06406 8.125 4.37656 8.125ZM35.6266 17.5C34.9391 17.5 34.3766 18.0625 34.3766 18.75C34.3766 19.4375 34.9391 20 35.6266 20C36.3141 20 36.8766 19.4375 36.8766 18.75C36.8766 18.0625 36.3141 17.5 35.6266 17.5ZM4.37656 17.5C3.68906 17.5 3.12656 18.0625 3.12656 18.75C3.12656 19.4375 3.68906 20 4.37656 20C5.06406 20 5.62656 19.4375 5.62656 18.75C5.62656 18.0625 5.06406 17.5 4.37656 17.5ZM20.0016 9.375C14.8266 9.375 10.6266 13.575 10.6266 18.75C10.6266 23.925 14.8266 28.125 20.0016 28.125C25.1766 28.125 29.3766 23.925 29.3766 18.75C29.3766 13.575 25.1766 9.375 20.0016 9.375ZM35.6266 26.875C34.9391 26.875 34.3766 27.4375 34.3766 28.125C34.3766 28.8125 34.9391 29.375 35.6266 29.375C36.3141 29.375 36.8766 28.8125 36.8766 28.125C36.8766 27.4375 36.3141 26.875 35.6266 26.875ZM4.37656 26.875C3.68906 26.875 3.12656 27.4375 3.12656 28.125C3.12656 28.8125 3.68906 29.375 4.37656 29.375C5.06406 29.375 5.62656 28.8125 5.62656 28.125C5.62656 27.4375 5.06406 26.875 4.37656 26.875ZM6.80156 19.375C6.52656 20.45 5.53906 21.25 4.37656 21.25C3.00156 21.25 1.87656 20.125 1.87656 18.75C1.87656 17.375 3.00156 16.25 4.37656 16.25C5.53906 16.25 6.51406 17.05 6.80156 18.125H9.40156C9.55156 15.5375 10.6391 13.1875 12.3141 11.425L10.9891 10H6.80156C6.52656 11.075 5.53906 11.875 4.37656 11.875C3.00156 11.875 1.87656 10.75 1.87656 9.375C1.87656 8 3.00156 6.875 4.37656 6.875C5.53906 6.875 6.51406 7.675 6.80156 8.75H11.2516C11.4266 8.75 11.5891 8.825 11.7016 8.95L13.2141 10.575C15.0516 9.05 17.4141 8.125 19.9891 8.125C22.5641 8.125 24.9266 9.05 26.7641 10.575L28.2766 8.95C28.3891 8.825 28.5641 8.75 28.7266 8.75H33.1766C33.4516 7.675 34.4391 6.875 35.6016 6.875C36.9766 6.875 38.1016 8 38.1016 9.375C38.1016 10.75 36.9766 11.875 35.6016 11.875C34.4391 11.875 33.4641 11.075 33.1766 10H28.9891L27.6641 11.425C29.3516 13.1875 30.4266 15.5375 30.5766 18.125H33.1766C33.4516 17.05 34.4391 16.25 35.6016 16.25C36.9766 16.25 38.1016 17.375 38.1016 18.75C38.1016 20.125 36.9766 21.25 35.6016 21.25C34.4391 21.25 33.4641 20.45 33.1766 19.375H30.5766C30.4266 21.9625 29.3391 24.3125 27.6641 26.075L28.9891 27.5H33.1766C33.4516 26.425 34.4391 25.625 35.6016 25.625C36.9766 25.625 38.1016 26.75 38.1016 28.125C38.1016 29.5 36.9766 30.625 35.6016 30.625C34.4391 30.625 33.4641 29.825 33.1766 28.75H28.7266C28.5516 28.75 28.3891 28.675 28.2641 28.55L26.7516 26.925C24.9141 28.45 22.5516 29.375 19.9766 29.375C17.4016 29.375 15.0391 28.45 13.2016 26.925L11.6891 28.55C11.5641 28.675 11.4016 28.75 11.2266 28.75H6.77656C6.50156 29.825 5.51406 30.625 4.35156 30.625C2.97656 30.625 1.85156 29.5 1.85156 28.125C1.85156 26.75 2.97656 25.625 4.35156 25.625C5.51406 25.625 6.48906 26.425 6.77656 27.5H10.9641L12.2891 26.075C10.6016 24.3125 9.52656 21.9625 9.37656 19.375H6.77656H6.80156Z" fill="var(--fill-0, #2C1D44)"/>
<path id="Vector_7" d="M20 26.875C15.525 26.875 11.875 23.225 11.875 18.75C11.875 14.275 15.525 10.625 20 10.625C24.475 10.625 28.125 14.275 28.125 18.75C28.125 23.225 24.475 26.875 20 26.875ZM20 11.875C16.2125 11.875 13.125 14.9625 13.125 18.75C13.125 22.5375 16.2125 25.625 20 25.625C23.7875 25.625 26.875 22.5375 26.875 18.75C26.875 14.9625 23.7875 11.875 20 11.875Z" fill="var(--fill-0, #2C1D44)"/>
<path id="Vector_8" fill-rule="evenodd" clip-rule="evenodd" d="M19.375 18.125H18.75C18.4 18.125 18.125 17.8375 18.125 17.5C18.125 17.1625 18.4 16.875 18.75 16.875H19.375V18.125ZM20.625 20.625V19.375H21.25C21.6 19.375 21.875 19.6625 21.875 20C21.875 20.3375 21.6 20.625 21.25 20.625H20.625ZM19.375 15.625V15C19.375 14.65 19.65 14.375 20 14.375C20.35 14.375 20.625 14.65 20.625 15V15.625H22.5C22.85 15.625 23.125 15.9 23.125 16.25C23.125 16.6 22.85 16.875 22.5 16.875H20.625V18.125H21.25C22.2875 18.125 23.125 18.9625 23.125 20C23.125 21.0375 22.2875 21.875 21.25 21.875H20.625V22.5C20.625 22.85 20.35 23.125 20 23.125C19.65 23.125 19.375 22.85 19.375 22.5V21.875H17.5C17.15 21.875 16.875 21.6 16.875 21.25C16.875 20.9 17.15 20.625 17.5 20.625H19.375V19.375H18.75C17.7125 19.375 16.875 18.5375 16.875 17.5C16.875 16.4625 17.7125 15.625 18.75 15.625H19.375Z" fill="var(--fill-0, #2C1D44)"/>
</g>
</svg>
