<svg preserveAspectRatio="none" width="100%" height="100%" overflow="visible" style="display: block;" viewBox="0 0 40 40" fill="none" xmlns="http://www.w3.org/2000/svg">
<g id="health-check_17774974 1" opacity="0.8" clip-path="url(#clip0_0_45)">
<path id="Vector" d="M9.38422 30.8961C9.38422 31.0411 9.3266 31.1802 9.22404 31.2828C9.12148 31.3853 8.98238 31.4429 8.83734 31.4429H7.73867C7.59363 31.4429 7.45453 31.3853 7.35197 31.2828C7.24941 31.1802 7.1918 31.0411 7.1918 30.8961C7.1918 30.751 7.24941 30.6119 7.35197 30.5094C7.45453 30.4068 7.59363 30.3492 7.73867 30.3492H8.83719C8.90902 30.3492 8.98015 30.3633 9.04652 30.3908C9.11288 30.4182 9.17319 30.4585 9.22399 30.5093C9.27479 30.5601 9.31508 30.6204 9.34258 30.6867C9.37007 30.7531 9.38422 30.8242 9.38422 30.8961ZM8.83734 33.4361H7.73867C7.59363 33.4361 7.45453 33.4938 7.35197 33.5963C7.24941 33.6989 7.1918 33.838 7.1918 33.983C7.1918 34.1281 7.24941 34.2672 7.35197 34.3697C7.45453 34.4723 7.59363 34.5299 7.73867 34.5299H8.83719C8.98223 34.5299 9.12133 34.4723 9.22389 34.3697C9.32645 34.2672 9.38406 34.1281 9.38406 33.983C9.38406 33.838 9.32645 33.6989 9.22389 33.5963C9.12133 33.4938 8.98238 33.4361 8.83734 33.4361ZM12.2543 7.77372H21.1036C21.2486 7.77372 21.3877 7.7161 21.4903 7.61355C21.5929 7.51099 21.6505 7.37189 21.6505 7.22685C21.6505 7.08181 21.5929 6.94271 21.4903 6.84015C21.3877 6.73759 21.2486 6.67997 21.1036 6.67997H12.2543C12.1093 6.67997 11.9702 6.73759 11.8676 6.84015C11.765 6.94271 11.7074 7.08181 11.7074 7.22685C11.7074 7.37189 11.765 7.51099 11.8676 7.61355C11.9702 7.7161 12.1093 7.77372 12.2543 7.77372ZM8.83719 27.2641H7.73867C7.59363 27.2641 7.45453 27.3217 7.35197 27.4243C7.24941 27.5268 7.1918 27.6659 7.1918 27.811C7.1918 27.956 7.24941 28.0951 7.35197 28.1977C7.45453 28.3002 7.59363 28.3579 7.73867 28.3579H8.83719C8.98223 28.3579 9.12133 28.3002 9.22389 28.1977C9.32645 28.0951 9.38406 27.956 9.38406 27.811C9.38406 27.6659 9.32645 27.5268 9.22389 27.4243C9.12133 27.3217 8.98223 27.2641 8.83719 27.2641ZM16.6702 3.62528H16.6901C16.8351 3.62528 16.9742 3.56767 17.0768 3.46511C17.1793 3.36255 17.237 3.22345 17.237 3.07841C17.237 2.93337 17.1793 2.79427 17.0768 2.69171C16.9742 2.58915 16.8351 2.53153 16.6901 2.53153H16.6702C16.5251 2.53153 16.386 2.58915 16.2835 2.69171C16.1809 2.79427 16.1233 2.93337 16.1233 3.07841C16.1233 3.22345 16.1809 3.36255 16.2835 3.46511C16.386 3.56767 16.5251 3.62528 16.6702 3.62528ZM11.842 18.6204H14.0743C14.1808 18.6204 14.285 18.5893 14.3741 18.5309C14.4632 18.4725 14.5333 18.3894 14.5758 18.2918L14.7555 17.8797L15.6227 19.8953C15.6649 19.9935 15.735 20.0772 15.8243 20.136C15.9136 20.1948 16.0182 20.2261 16.1251 20.2261H16.1373C16.2462 20.2237 16.352 20.1888 16.441 20.1259C16.53 20.063 16.5981 19.9749 16.6367 19.8729L17.4737 17.6632C17.7613 18.4482 18.0395 19.1525 18.3346 19.8467C18.3765 19.9455 18.4466 20.0298 18.5361 20.0891C18.6256 20.1483 18.7306 20.18 18.838 20.18C18.9452 20.18 19.0501 20.1485 19.1396 20.0893C19.229 20.0302 19.2991 19.9461 19.3412 19.8474L19.8638 18.6208H21.5154C21.6604 18.6208 21.7995 18.5632 21.9021 18.4607C22.0046 18.3581 22.0623 18.219 22.0623 18.074C22.0623 17.9289 22.0046 17.7898 21.9021 17.6873C21.7995 17.5847 21.6604 17.5271 21.5154 17.5271H19.5027C19.3954 17.5271 19.2905 17.5586 19.201 17.6178C19.1116 17.6769 19.0415 17.7611 18.9995 17.8597L18.8498 18.2108C18.5768 17.51 18.3048 16.7598 18.0093 15.8952C17.9729 15.7886 17.9046 15.6959 17.8135 15.6296C17.7225 15.5633 17.6132 15.5268 17.5006 15.525C17.388 15.5231 17.2776 15.5561 17.1845 15.6193C17.0913 15.6826 17.02 15.7731 16.9802 15.8784L16.093 18.2207L15.2614 16.2872C15.2192 16.1892 15.1493 16.1057 15.0603 16.0469C14.9712 15.9881 14.8669 15.9567 14.7602 15.9565H14.7589C14.6525 15.9564 14.5483 15.9874 14.4592 16.0457C14.3701 16.104 14.3 16.187 14.2574 16.2846L13.7163 17.5261H11.8423C11.6973 17.5261 11.5582 17.5838 11.4556 17.6863C11.3531 17.7889 11.2955 17.928 11.2955 18.073C11.2955 18.2181 11.3531 18.3572 11.4556 18.4597C11.5582 18.5623 11.697 18.6204 11.842 18.6204ZM25.6192 33.4361H10.6044C10.4593 33.4361 10.3202 33.4938 10.2177 33.5963C10.1151 33.6989 10.0575 33.838 10.0575 33.983C10.0575 34.1281 10.1151 34.2672 10.2177 34.3697C10.3202 34.4723 10.4593 34.5299 10.6044 34.5299H25.6192C25.7643 34.5299 25.9034 34.4723 26.0059 34.3697C26.1085 34.2672 26.1661 34.1281 26.1661 33.983C26.1661 33.838 26.1085 33.6989 26.0059 33.5963C25.9034 33.4938 25.7643 33.4361 25.6192 33.4361ZM10.0572 27.8111C10.0572 27.9562 10.1148 28.0953 10.2174 28.1978C10.3199 28.3004 10.459 28.358 10.6041 28.358H25.6192C25.7643 28.358 25.9034 28.3004 26.0059 28.1978C26.1085 28.0953 26.1661 27.9562 26.1661 27.8111C26.1661 27.6661 26.1085 27.527 26.0059 27.4244C25.9034 27.3219 25.7643 27.2643 25.6192 27.2643H10.6044C10.5325 27.2642 10.4614 27.2784 10.395 27.3059C10.3287 27.3333 10.2684 27.3736 10.2176 27.4244C10.1668 27.4752 10.1265 27.5355 10.099 27.6018C10.0715 27.6682 10.0572 27.7393 10.0572 27.8111ZM9.16328 16.3614C9.16202 15.5317 9.40707 14.7204 9.86737 14.0301C10.3277 13.3398 10.9825 12.8017 11.7489 12.484C12.5153 12.1663 13.3588 12.0832 14.1725 12.2453C14.9862 12.4074 15.7334 12.8074 16.3195 13.3946L16.6795 13.7555L17.0384 13.3955C17.6245 12.8082 18.3717 12.4081 19.1853 12.2459C19.999 12.0837 20.8425 12.1666 21.609 12.4843C22.3755 12.8019 23.0304 13.3399 23.4908 14.0301C23.9512 14.7204 24.1963 15.5317 24.1952 16.3614C24.1974 16.9121 24.0902 17.4578 23.8799 17.9668C23.6696 18.4759 23.3603 18.938 22.97 19.3266L17.0663 25.2304C17.0155 25.2811 16.9552 25.3214 16.8888 25.3489C16.8225 25.3764 16.7514 25.3906 16.6795 25.3906C16.6077 25.3906 16.5366 25.3764 16.4702 25.3489C16.4039 25.3214 16.3436 25.2811 16.2928 25.2304L10.3886 19.3263C9.99829 18.9378 9.689 18.4757 9.47866 17.9667C9.26832 17.4577 9.16112 16.9121 9.16328 16.3614ZM10.257 16.3614C10.2552 16.7683 10.3342 17.1714 10.4894 17.5475C10.6446 17.9237 10.8729 18.2652 11.1612 18.5524L16.6788 24.07L22.1961 18.5526C22.7754 17.9702 23.1006 17.1821 23.1006 16.3606C23.1006 15.5391 22.7754 14.751 22.1961 14.1686C21.6138 13.5888 20.8256 13.2634 20.0039 13.2634C19.1822 13.2634 18.394 13.5888 17.8116 14.1686L17.0662 14.9162C17.0154 14.9672 16.955 15.0076 16.8885 15.0352C16.8221 15.0628 16.7508 15.077 16.6788 15.077C16.6069 15.077 16.5356 15.0628 16.4691 15.0352C16.4027 15.0076 16.3423 14.9672 16.2915 14.9162L15.5451 14.1677C15.1119 13.7338 14.5596 13.4382 13.9583 13.3185C13.3569 13.1987 12.7335 13.2602 12.1672 13.4951C11.6008 13.7301 11.1169 14.1279 10.7769 14.6381C10.4368 15.1483 10.2559 15.7482 10.257 16.3614ZM25.6192 30.349H10.6044C10.4593 30.349 10.3202 30.4066 10.2177 30.5092C10.1151 30.6118 10.0575 30.7509 10.0575 30.8959C10.0575 31.0409 10.1151 31.18 10.2177 31.2826C10.3202 31.3852 10.4593 31.4428 10.6044 31.4428H25.6192C25.7643 31.4428 25.9034 31.3852 26.0059 31.2826C26.1085 31.18 26.1661 31.0409 26.1661 30.8959C26.1661 30.7509 26.1085 30.6118 26.0059 30.5092C25.9034 30.4066 25.7643 30.349 25.6192 30.349ZM37.0201 8.68146C37.0182 10.3419 36.3578 11.9338 35.1836 13.1079C34.0095 14.282 32.4176 14.9425 30.7572 14.9443C30.6284 14.9443 30.5009 14.9393 30.3744 14.9315V37.1565C30.3744 38.7245 29.1335 40.0003 27.6088 40.0003H5.75C4.22484 40.0003 2.98438 38.7247 2.98438 37.1565V7.52544C2.98438 5.95755 4.22524 4.68169 5.75039 4.68169H10.1573C10.3243 4.11172 10.6712 3.61108 11.1462 3.25461C11.6213 2.89814 12.1989 2.70499 12.7928 2.70403H13.4745C13.6039 1.9475 13.9967 1.26111 14.5835 0.766268C15.1702 0.271423 15.913 0 16.6805 0C17.448 0 18.1908 0.271423 18.7776 0.766268C19.3643 1.26111 19.7571 1.9475 19.8866 2.70403H20.5662C21.1602 2.70499 21.7378 2.89814 22.2128 3.25461C22.6879 3.61108 23.0348 4.11172 23.2017 4.68169H25.9415C26.7635 3.68968 27.8716 2.97548 29.1146 2.63657C30.3576 2.29765 31.6748 2.35053 32.8866 2.78798C34.0984 3.22543 35.1458 4.02615 35.8856 5.08085C36.6255 6.13556 37.0219 7.39288 37.0208 8.68122L37.0201 8.68146ZM23.3117 6.6706H24.8273C24.9318 6.36283 25.0602 6.06371 25.2113 5.77599H23.3117V6.6706ZM11.1403 8.39802C11.1404 8.435 11.1551 8.47045 11.1812 8.49661C11.2073 8.52276 11.2428 8.53749 11.2798 8.53755H22.0782C22.1152 8.53751 22.1506 8.52279 22.1768 8.49663C22.2029 8.47047 22.2176 8.435 22.2177 8.39802V5.45263C22.2175 5.01432 22.0434 4.594 21.7337 4.28386C21.4239 3.97373 21.0039 3.79912 20.5655 3.79833H19.3852C19.2402 3.79833 19.1011 3.74071 18.9985 3.63816C18.896 3.5356 18.8384 3.3965 18.8384 3.25146C18.8349 2.68135 18.606 2.13575 18.2017 1.73383C17.7974 1.33191 17.2504 1.10632 16.6803 1.10632C16.1102 1.10632 15.5632 1.33191 15.1588 1.73383C14.7545 2.13575 14.5256 2.68135 14.5222 3.25146C14.5222 3.3965 14.4646 3.5356 14.362 3.63816C14.2595 3.74071 14.1204 3.79833 13.9753 3.79833H12.7924C12.3541 3.79912 11.934 3.97373 11.6243 4.28386C11.3146 4.594 11.1405 5.01432 11.1403 5.45263V8.39802ZM10.0466 8.39802V7.76466H6.86688C6.65527 7.7646 6.45228 7.84845 6.30242 7.99783C6.15255 8.14721 6.06804 8.34993 6.06742 8.56153V36.1203C6.06804 36.3319 6.15255 36.5346 6.30242 36.684C6.45228 36.8334 6.65527 36.9172 6.86688 36.9172H26.4919C26.7035 36.9172 26.9064 36.8333 27.0563 36.684C27.2061 36.5346 27.2906 36.3319 27.2913 36.1203V13.8947C26.301 13.2377 25.5184 12.3123 25.035 11.2266C24.5517 10.141 24.3876 8.94015 24.562 7.76466H23.312V8.39802C23.3117 8.72507 23.1816 9.03862 22.9504 9.26988C22.7191 9.50115 22.4056 9.63124 22.0785 9.63161H11.2798C10.9527 9.63124 10.6392 9.50115 10.4079 9.26988C10.1767 9.03862 10.0469 8.72507 10.0466 8.39802ZM29.2803 14.7668C28.9752 14.6928 28.6761 14.5958 28.3857 14.4765V36.1203C28.3848 36.622 28.185 37.1029 27.83 37.4574C27.475 37.812 26.9939 38.0113 26.4922 38.0116H6.86617C6.36445 38.0113 5.88334 37.812 5.52837 37.4574C5.1734 37.1029 4.97355 36.622 4.97266 36.1203V8.56192C4.97353 8.0602 5.17337 7.57931 5.52835 7.22474C5.88332 6.87017 6.36445 6.67088 6.86617 6.6706H10.0463V5.77599H5.75C4.82813 5.77599 4.07813 6.56083 4.07813 7.52544V37.1565C4.07813 38.1212 4.82813 38.9061 5.75 38.9061H27.608C28.5299 38.9061 29.2799 38.1212 29.2799 37.1565L29.2803 14.7668ZM35.9263 8.68146C35.9263 7.65916 35.6232 6.65982 35.0552 5.80981C34.4873 4.9598 33.68 4.2973 32.7355 3.90608C31.791 3.51486 30.7518 3.4125 29.7491 3.61195C28.7465 3.81139 27.8255 4.30367 27.1026 5.02654C26.3797 5.74942 25.8874 6.67041 25.688 7.67307C25.4885 8.67572 25.5909 9.715 25.9821 10.6595C26.3733 11.604 27.0358 12.4112 27.8859 12.9792C28.7359 13.5471 29.7352 13.8503 30.7575 13.8503C32.1277 13.8484 33.4413 13.3032 34.4102 12.3343C35.3791 11.3653 35.9245 10.0517 35.9263 8.68146ZM33.336 6.19083L29.5173 10.0096L28.1814 8.67364C28.0788 8.57108 27.9397 8.51346 27.7947 8.51346C27.6496 8.51346 27.5105 8.57108 27.408 8.67364C27.3054 8.77621 27.2478 8.91531 27.2478 9.06036C27.2478 9.20541 27.3054 9.34452 27.408 9.44708L29.1309 11.17C29.1817 11.2208 29.242 11.261 29.3084 11.2885C29.3747 11.316 29.4458 11.3302 29.5177 11.3302C29.5895 11.3302 29.6606 11.316 29.727 11.2885C29.7933 11.261 29.8536 11.2208 29.9044 11.17L34.1099 6.96458C34.1607 6.9138 34.201 6.85351 34.2285 6.78715C34.256 6.7208 34.2701 6.64968 34.2701 6.57786C34.2701 6.50604 34.256 6.43492 34.2285 6.36857C34.201 6.30222 34.1607 6.24193 34.1099 6.19114C34.0591 6.14036 33.9988 6.10007 33.9325 6.07259C33.8661 6.04511 33.795 6.03096 33.7232 6.03096C33.6514 6.03096 33.5803 6.04511 33.5139 6.07259C33.4476 6.10007 33.3868 6.14005 33.336 6.19083Z" fill="var(--fill-0, #2C1D44)"/>
</g>
<defs>
<clipPath id="clip0_0_45">
<rect width="40" height="40" fill="white"/>
</clipPath>
</defs>
</svg>
