<svg preserveAspectRatio="none" width="100%" height="100%" overflow="visible" style="display: block;" viewBox="0 0 40 40" fill="none" xmlns="http://www.w3.org/2000/svg">
<g id="cyber-physical-system_9709011 1" opacity="0.8">
<path id="Vector" fill-rule="evenodd" clip-rule="evenodd" d="M10.1333 18.4368V17.0257C10.1333 16.4884 9.69617 16.0512 9.15891 16.0512H8.51516V14.403L13.1619 6.37984C13.8274 6.32234 14.4456 6.03609 14.9235 5.5582C14.9859 5.49586 15.0445 5.43094 15.1003 5.36406L22.5855 4.92031C22.6278 4.97125 22.6724 5.02094 22.7202 5.06867C23.1245 5.47297 23.6509 5.6818 24.1817 5.69648L24.4944 7.37945C24.5236 7.53672 24.6201 7.67328 24.7586 7.7532L27.1982 9.16164C27.2844 9.21133 27.3784 9.23492 27.4712 9.23492C27.6602 9.23492 27.844 9.1368 27.9452 8.96141C28.0962 8.69977 28.0066 8.36539 27.7451 8.21437L25.5236 6.93203L25.2481 5.44922C25.4335 5.35125 25.6075 5.22453 25.7633 5.06875C26.2194 4.61258 26.4269 4.00094 26.387 3.40281L27.8624 2.88109L30.0838 4.16359C30.17 4.21336 30.264 4.23695 30.3568 4.23695C30.5458 4.23695 30.7296 4.13883 30.8309 3.96344C30.9819 3.70187 30.8923 3.36742 30.6307 3.21641L28.1911 1.80789C28.0527 1.72789 27.8861 1.7125 27.7354 1.76586L26.0402 2.36531C25.9612 2.24508 25.8689 2.13117 25.7633 2.02555C25.3569 1.61914 24.8165 1.39531 24.2417 1.39531C23.667 1.39531 23.1266 1.61914 22.7202 2.02555C22.6724 2.07328 22.6277 2.12297 22.5855 2.17391L15.1003 1.73016C15.0446 1.66336 14.9859 1.59844 14.9236 1.53609C14.3864 0.998984 13.6722 0.703125 12.9125 0.703125C12.1528 0.703125 11.4386 0.998984 10.9015 1.53609C10.3644 2.07328 10.0685 2.7875 10.0685 3.54711C10.0685 3.7825 10.097 4.01344 10.1522 4.23609L4.30586 11.6677C3.42656 12.1517 2.82922 13.0873 2.82922 14.1599V16.0512H2.18547C1.6482 16.0512 1.21109 16.4883 1.21109 17.0256V18.4367C1.21109 18.9741 1.6482 19.4112 2.18547 19.4112H9.15898C9.69617 19.4112 10.1333 18.9741 10.1333 18.4368ZM23.4935 2.79891C23.9061 2.38633 24.5773 2.38648 24.9898 2.79891C25.4023 3.21148 25.4023 3.88281 24.9898 4.29539C24.79 4.49523 24.5243 4.60523 24.2416 4.60523C23.959 4.60523 23.6933 4.49523 23.4934 4.29539C23.0809 3.88281 23.0809 3.21148 23.4935 2.79891ZM22.1126 3.24148C22.0837 3.44414 22.0837 3.65016 22.1126 3.85281L15.6732 4.23453C15.7281 4.01234 15.7566 3.78187 15.7566 3.54711C15.7566 3.31234 15.7281 3.08195 15.6732 2.85977L22.1126 3.24148ZM11.6748 2.30953C12.0054 1.97891 12.445 1.79688 12.9125 1.79688C13.38 1.79688 13.8196 1.97891 14.1502 2.30953C14.4808 2.64 14.6629 3.07961 14.6629 3.54711C14.6629 4.01461 14.4808 4.45414 14.1502 4.78484C13.8197 5.11539 13.3801 5.2975 12.9126 5.2975C12.4451 5.2975 12.0055 5.11547 11.6749 4.78484C11.3444 4.45437 11.1623 4.01484 11.1623 3.54719C11.1622 3.07961 11.3442 2.64008 11.6748 2.30953ZM10.9014 5.5582C11.211 5.86781 11.5796 6.09672 11.9816 6.23555L8.17375 12.8104C7.73602 12.0023 6.91828 11.429 5.9618 11.3317L10.69 5.32133C10.7559 5.40344 10.826 5.48273 10.9014 5.5582ZM3.92289 14.16C3.92289 13.1955 4.70758 12.4108 5.67211 12.4108C6.63664 12.4108 7.42141 13.1955 7.42141 14.16V16.0512H3.92289V14.16ZM9.03953 18.3175H2.30477V17.145H9.03953V18.3175ZM38.2421 20.7631H29.3248C29.0227 20.7631 28.7779 21.008 28.7779 21.31C28.7779 25.7079 25.2 29.2858 20.8022 29.2858C16.4044 29.2858 12.8264 25.7079 12.8264 21.31C12.8264 21.1648 12.7686 21.0254 12.6658 20.9229C12.5633 20.8205 12.4244 20.7631 12.2795 20.7631C12.2791 20.7631 12.2787 20.7631 12.2783 20.7631L3.36086 20.7838C3.0593 20.7845 2.81523 21.0291 2.81523 21.3306V23.054C2.81523 23.9872 3.57445 24.7464 4.50773 24.7464C5.87109 24.7464 7.04281 25.5305 7.56562 26.7927C8.08844 28.0548 7.81437 29.4378 6.85023 30.402C6.19039 31.0619 6.19039 32.1356 6.85023 32.7955L9.31664 35.262C9.97656 35.9218 11.0503 35.9217 11.7102 35.2619C12.6757 34.2964 14.0591 34.0211 15.3206 34.5438C16.582 35.0663 17.3657 36.2391 17.3657 37.6045C17.3657 38.5377 18.1249 39.297 19.0582 39.297H22.5461C23.4793 39.297 24.2385 38.5377 24.2385 37.6045C24.2385 36.2411 25.0226 35.0695 26.2848 34.5466C27.5469 34.0237 28.93 34.2977 29.8941 35.262C30.5541 35.9218 31.6277 35.9217 32.2877 35.2619L34.754 32.7955C35.0736 32.4759 35.2497 32.0509 35.2497 31.5987C35.2497 31.1467 35.0737 30.7216 34.754 30.402C33.7899 29.4379 33.5159 28.0549 34.0387 26.7927C34.5615 25.5305 35.7332 24.7465 37.0966 24.7465C38.0298 24.7465 38.789 23.9873 38.789 23.0541V21.3102C38.789 21.0079 38.5441 20.7631 38.2421 20.7631ZM37.6952 23.0539C37.6952 23.3841 37.4266 23.6526 37.0966 23.6526C35.2824 23.6526 33.7235 24.6954 33.0282 26.374C32.3329 28.0527 32.6978 29.8924 33.9805 31.1752C34.0937 31.2884 34.1559 31.4388 34.1559 31.5987C34.1559 31.7587 34.0937 31.9091 33.9806 32.0221L31.5143 34.4884C31.2809 34.722 30.901 34.7221 30.6675 34.4884C29.3848 33.2057 27.5448 32.8405 25.8662 33.5361C24.1876 34.2313 23.1448 35.7903 23.1448 37.6044C23.1448 37.9345 22.8762 38.2031 22.5462 38.2031H19.0583C18.7281 38.2031 18.4595 37.9345 18.4595 37.6044C18.4595 35.7882 17.4172 34.2283 15.7392 33.5333C15.177 33.3004 14.5966 33.1866 14.0248 33.1866C12.8905 33.1866 11.7908 33.6345 10.9369 34.4884C10.7035 34.7219 10.3236 34.722 10.0901 34.4884L7.62367 32.022C7.39023 31.7887 7.39023 31.4088 7.62367 31.1753C8.90648 29.8924 9.27141 28.0527 8.57609 26.374C7.88078 24.6954 6.32188 23.6526 4.50773 23.6526C4.17758 23.6526 3.90898 23.384 3.90898 23.0539V21.8762L11.749 21.8581C12.0334 26.6048 15.9852 30.3795 20.8021 30.3795C25.6193 30.3795 29.5714 26.604 29.8553 21.8569H37.6952V23.0539H37.6952ZM15.3358 21.31C15.3358 24.3241 17.788 26.7764 20.8021 26.7764C23.8163 26.7764 26.2685 24.3241 26.2685 21.31C26.2685 21.008 26.0237 20.7631 25.7216 20.7631H22.719V19.9401C22.719 18.8831 21.8591 18.0232 20.8021 18.0232C19.7452 18.0232 18.8852 18.8831 18.8852 19.9401V20.7631H15.8826C15.5805 20.7631 15.3358 21.0079 15.3358 21.31ZM19.979 19.94C19.979 19.4861 20.3482 19.1169 20.8021 19.1169C21.256 19.1169 21.6252 19.4862 21.6252 19.94V20.763H19.9791L19.979 19.94ZM25.1407 21.8569C24.8709 24.0109 23.028 25.6827 20.8021 25.6827C18.5762 25.6827 16.7334 24.0109 16.4635 21.8569H25.1407ZM26.4095 13.5466C24.9116 12.0486 22.9203 11.2236 20.8023 11.2236C18.684 11.2236 16.6925 12.0485 15.1948 13.5462C14.9812 13.7598 14.635 13.7598 14.4214 13.5463C14.2078 13.3327 14.2078 12.9865 14.4214 12.773C16.1257 11.0685 18.3919 10.1298 20.8024 10.1298C23.2126 10.1298 25.4786 11.0687 27.1831 12.7734C27.3966 12.9869 27.3966 13.3332 27.183 13.5467C27.0762 13.6534 26.9363 13.7069 26.7964 13.7069C26.6562 13.7069 26.5163 13.6535 26.4095 13.5466ZM20.8023 15.4776C21.7844 15.4776 22.7076 15.86 23.4019 16.5544C23.6155 16.7679 23.6155 17.1142 23.4019 17.3277C23.2951 17.4345 23.1551 17.4879 23.0152 17.4879C22.8752 17.4879 22.7352 17.4345 22.6284 17.3277C22.1407 16.8399 21.4922 16.5712 20.8023 16.5712C20.1124 16.5712 19.4638 16.8398 18.9761 17.3277C18.7626 17.5412 18.4162 17.5412 18.2027 17.3277C17.9891 17.1141 17.9891 16.7679 18.2027 16.5543C18.8971 15.86 19.8203 15.4776 20.8023 15.4776ZM24.5191 15.4373C23.5261 14.4443 22.2062 13.8975 20.8023 13.8975C19.3982 13.8975 18.0782 14.4443 17.0853 15.4371C16.8718 15.6506 16.5255 15.6506 16.312 15.437C16.0984 15.2235 16.0984 14.8773 16.312 14.6637C17.5114 13.4643 19.1061 12.8038 20.8023 12.8038C22.4982 12.8038 24.0929 13.4643 25.2924 14.6638C25.506 14.8774 25.506 15.2237 25.2924 15.4372C25.1856 15.544 25.0457 15.5974 24.9057 15.5974C24.7657 15.5974 24.6259 15.544 24.5191 15.4373ZM6.22758 14.16C6.22758 14.4655 5.97766 14.7155 5.67211 14.7155C5.36656 14.7155 5.11664 14.4655 5.11664 14.16C5.11664 13.8545 5.36656 13.6045 5.67211 13.6045C5.97766 13.6045 6.22758 13.8545 6.22758 14.16ZM12.5197 3.93992C12.3027 3.72297 12.3027 3.37133 12.5197 3.15437C12.7366 2.93742 13.0883 2.93742 13.3052 3.15437C13.5222 3.37125 13.5222 3.72297 13.3052 3.93992C13.0884 4.15687 12.7366 4.15687 12.5197 3.93992Z" fill="var(--fill-0, #2C1D44)"/>
</g>
</svg>
