<svg preserveAspectRatio="none" width="100%" height="100%" overflow="visible" style="display: block;" viewBox="0 0 42.5 40" fill="none" xmlns="http://www.w3.org/2000/svg">
<g id="Group 173">
<path id="Vector" opacity="0.8" d="M40.2669 27.6162C39.7762 27.6169 39.2993 27.7782 38.9097 28.0755C38.5202 28.3727 38.2396 28.7892 38.1113 29.2609H34.1755V24.8893H34.5401C36.312 24.8863 38.019 24.2252 39.3272 23.0353C40.6354 21.8455 41.4508 20.2126 41.6139 18.4558C41.777 16.6991 41.276 14.945 40.209 13.5365C39.142 12.1281 37.5856 11.1667 35.8443 10.8403C35.9648 8.56498 35.324 6.31412 34.0224 4.44018C32.7207 2.56624 30.8316 1.17504 28.6509 0.484436C26.4702 -0.206171 24.1211 -0.15719 21.9713 0.623709C19.8216 1.40461 17.9926 2.87333 16.7709 4.79988C15.6625 4.38096 14.4743 4.21322 13.2926 4.30886C12.1109 4.4045 10.9655 4.76112 9.93961 5.35279C8.91372 5.94446 8.03314 6.75631 7.36187 7.72933C6.69061 8.70234 6.24554 9.81207 6.05902 10.9778C4.40069 11.4356 2.96519 12.4763 2.01843 13.9072C1.07166 15.338 0.677794 17.062 0.909784 18.7599C1.14177 20.4577 1.9839 22.0143 3.28016 23.1413C4.57643 24.2683 6.23899 24.8893 7.95987 24.8893H8.3222V29.2608H4.38884C4.24794 28.7403 3.92189 28.2884 3.47138 27.9894C3.02086 27.6904 2.47658 27.5646 1.93982 27.6353C1.40307 27.7061 0.910423 27.9686 0.553577 28.3741C0.196732 28.7795 0 29.3002 0 29.8393C0 30.3784 0.196732 30.8992 0.553577 31.3046C0.910423 31.7101 1.40307 31.9726 1.93982 32.0434C2.47658 32.1141 3.02086 31.9883 3.47138 31.6893C3.92189 31.3902 4.24794 30.9384 4.38884 30.4179H8.90358C9.05768 30.4179 9.20547 30.3569 9.31444 30.2484C9.42341 30.1399 9.48462 29.9928 9.48462 29.8393V24.8893H13.4772V33.9087H8.83103C8.69013 33.3882 8.36408 32.9364 7.91357 32.6374C7.46305 32.3383 6.91877 32.2125 6.38201 32.2833C5.84526 32.354 5.35261 32.6165 4.99577 33.022C4.63892 33.4274 4.44219 33.9482 4.44219 34.4873C4.44219 35.0264 4.63892 35.5471 4.99577 35.9526C5.35261 36.358 5.84526 36.6206 6.38201 36.6913C6.91877 36.7621 7.46305 36.6362 7.91357 36.3372C8.36408 36.0382 8.69013 35.5864 8.83103 35.0658H14.0586C14.2127 35.0658 14.3605 35.0049 14.4695 34.8964C14.5785 34.7879 14.6397 34.6407 14.6397 34.4873V24.8893H17.616V35.6301C17.0933 35.7704 16.6395 36.095 16.3392 36.5436C16.0389 36.9922 15.9125 37.5341 15.9835 38.0685C16.0546 38.603 16.3183 39.0935 16.7255 39.4488C17.1327 39.8041 17.6557 40 18.1971 40C18.7385 40 19.2615 39.8041 19.6687 39.4488C20.0759 39.0935 20.3396 38.603 20.4107 38.0685C20.4817 37.5341 20.3553 36.9922 20.055 36.5436C19.7547 36.095 19.3009 35.7704 18.7781 35.6301V24.8893H23.7215V35.6301C23.1987 35.7704 22.745 36.095 22.4446 36.5436C22.1443 36.9922 22.0179 37.5341 22.089 38.0685C22.1601 38.603 22.4237 39.0935 22.8309 39.4488C23.2381 39.8041 23.7611 40 24.3026 40C24.844 40 25.367 39.8041 25.7742 39.4488C26.1814 39.0935 26.4451 38.603 26.5161 38.0685C26.5872 37.5341 26.4608 36.9922 26.1605 36.5436C25.8602 36.095 25.4064 35.7704 24.8836 35.6301V24.8893H27.86V34.4874C27.86 34.6408 27.9212 34.788 28.0302 34.8965C28.1391 35.005 28.2869 35.0659 28.441 35.0659H33.6686C33.8095 35.5864 34.1356 36.0383 34.5861 36.3373C35.0366 36.6363 35.5809 36.7622 36.1177 36.6914C36.6544 36.6206 37.1471 36.3581 37.5039 35.9527C37.8607 35.5472 38.0575 35.0265 38.0575 34.4874C38.0575 33.9483 37.8607 33.4275 37.5039 33.0221C37.1471 32.6166 36.6544 32.3541 36.1177 32.2833C35.5809 32.2126 35.0366 32.3384 34.5861 32.6374C34.1356 32.9365 33.8095 33.3883 33.6686 33.9088H29.0227V24.8893H33.0131V29.8395C33.0131 29.9929 33.0744 30.1401 33.1833 30.2486C33.2923 30.3571 33.4401 30.4181 33.5942 30.4181H38.1112C38.2196 30.8186 38.4384 31.181 38.7428 31.4641C39.0473 31.7473 39.4253 31.9401 39.834 32.0205C40.2427 32.101 40.6659 32.066 41.0557 31.9195C41.4455 31.773 41.7863 31.5208 42.0397 31.1915C42.293 30.8622 42.4488 30.4689 42.4894 30.056C42.53 29.6431 42.4537 29.2272 42.2693 28.8552C42.0848 28.4833 41.7995 28.1701 41.4456 27.9511C41.0917 27.7322 40.6836 27.6161 40.2669 27.6162ZM2.23324 30.9056C2.02145 30.9056 1.81443 30.8431 1.63834 30.7259C1.46225 30.6088 1.325 30.4423 1.24396 30.2474C1.16291 30.0526 1.14171 29.8382 1.18302 29.6314C1.22434 29.4246 1.32632 29.2346 1.47607 29.0855C1.62583 28.9364 1.81662 28.8349 2.02433 28.7937C2.23205 28.7526 2.44735 28.7737 2.64301 28.8544C2.83867 28.9351 3.0059 29.0718 3.12356 29.2471C3.24122 29.4224 3.30402 29.6286 3.30402 29.8394C3.30369 30.1221 3.19076 30.393 2.99001 30.5928C2.78926 30.7927 2.51709 30.9054 2.23324 30.9056ZM6.67534 35.5535C6.46356 35.5535 6.25653 35.491 6.08044 35.3739C5.90435 35.2567 5.76711 35.0902 5.68606 34.8954C5.60502 34.7006 5.58381 34.4862 5.62513 34.2794C5.66645 34.0725 5.76843 33.8826 5.91818 33.7335C6.06793 33.5844 6.25873 33.4828 6.46644 33.4417C6.67415 33.4005 6.88945 33.4217 7.08511 33.5023C7.28077 33.583 7.44801 33.7197 7.56567 33.895C7.68333 34.0704 7.74613 34.2765 7.74613 34.4874C7.7458 34.77 7.63287 35.041 7.43212 35.2408C7.23137 35.4406 6.9592 35.5533 6.67534 35.5535ZM19.2675 37.7768C19.2675 37.9877 19.2047 38.1938 19.087 38.3691C18.9693 38.5445 18.8021 38.6811 18.6065 38.7618C18.4108 38.8425 18.1955 38.8636 17.9878 38.8225C17.7801 38.7814 17.5893 38.6798 17.4395 38.5307C17.2898 38.3816 17.1878 38.1916 17.1465 37.9848C17.1052 37.778 17.1264 37.5636 17.2074 37.3688C17.2884 37.174 17.4257 37.0075 17.6018 36.8903C17.7779 36.7732 17.9849 36.7106 18.1967 36.7106C18.4806 36.7108 18.7529 36.8231 18.9537 37.0229C19.1546 37.2228 19.2672 37.4941 19.2675 37.7768ZM25.3731 37.7768C25.3731 37.9877 25.3103 38.1938 25.1926 38.3691C25.075 38.5445 24.9078 38.6811 24.7121 38.7618C24.5164 38.8425 24.3011 38.8636 24.0934 38.8225C23.8857 38.7814 23.6949 38.6798 23.5452 38.5307C23.3954 38.3816 23.2934 38.1916 23.2521 37.9848C23.2108 37.778 23.232 37.5636 23.313 37.3688C23.3941 37.174 23.5313 37.0075 23.7074 36.8903C23.8835 36.7732 24.0905 36.7106 24.3023 36.7106C24.5863 36.7108 24.8585 36.8231 25.0593 37.023C25.2602 37.2228 25.3728 37.4941 25.3731 37.7768ZM35.8245 33.4217C36.0363 33.4217 36.2433 33.4842 36.4194 33.6014C36.5955 33.7185 36.7327 33.885 36.8138 34.0799C36.8948 34.2747 36.916 34.489 36.8747 34.6959C36.8334 34.9027 36.7314 35.0927 36.5817 35.2418C36.4319 35.3909 36.2411 35.4924 36.0334 35.5335C35.8257 35.5747 35.6104 35.5536 35.4147 35.4729C35.2191 35.3922 35.0518 35.2555 34.9342 35.0802C34.8165 34.9049 34.7537 34.6987 34.7537 34.4879C34.7539 34.2051 34.8668 33.9339 35.0677 33.734C35.2685 33.534 35.5405 33.4219 35.8245 33.4217ZM29.0227 23.7319V21.23C29.0227 21.1284 28.9959 21.0286 28.9449 20.9406C28.8939 20.8526 28.8205 20.7796 28.7321 20.7288L25.6511 18.9587V11.855C26.1739 11.7147 26.6277 11.39 26.928 10.9415C27.2283 10.4929 27.3547 9.95095 27.2836 9.41651C27.2126 8.88207 26.9489 8.39155 26.5417 8.03624C26.1345 7.68093 25.6115 7.48505 25.0701 7.48505C24.5286 7.48505 24.0056 7.68093 23.5984 8.03624C23.1912 8.39155 22.9275 8.88207 22.8565 9.41651C22.7854 9.95095 22.9118 10.4929 23.2121 10.9415C23.5124 11.39 23.9662 11.7147 24.489 11.855V19.2926C24.489 19.3942 24.5158 19.494 24.5668 19.5819C24.6178 19.6699 24.6912 19.743 24.7795 19.7938L27.8605 21.5641V23.7319H24.884V21.9562C24.884 21.8546 24.8572 21.7548 24.8062 21.6669C24.7552 21.5789 24.6819 21.5059 24.5935 21.4551L21.6606 19.769V16.306C22.1834 16.1658 22.6372 15.8411 22.9375 15.3925C23.2378 14.944 23.3642 14.402 23.2932 13.8676C23.2221 13.3331 22.9584 12.8426 22.5512 12.4873C22.144 12.132 21.621 11.9361 21.0796 11.9361C20.5382 11.9361 20.0152 12.132 19.608 12.4873C19.2008 12.8426 18.9371 13.3331 18.866 13.8676C18.795 14.402 18.9213 14.944 19.2217 15.3925C19.522 15.8411 19.9758 16.1658 20.4985 16.306V20.103C20.4985 20.2046 20.5254 20.3044 20.5764 20.3923C20.6274 20.4803 20.7007 20.5533 20.7891 20.6041L23.7219 22.2902V23.7318H18.7784V21.9562C18.7784 21.8802 18.7634 21.805 18.7342 21.7348C18.705 21.6646 18.6622 21.6008 18.6082 21.5471C18.5543 21.4934 18.4902 21.4508 18.4197 21.4217C18.3492 21.3926 18.2736 21.3776 18.1973 21.3776C18.121 21.3776 18.0455 21.3926 17.975 21.4217C17.9045 21.4508 17.8404 21.4934 17.7865 21.5471C17.7325 21.6008 17.6897 21.6646 17.6605 21.7348C17.6313 21.805 17.6163 21.8802 17.6163 21.9562V23.7319H14.6398V21.5641L17.7207 19.7938C17.8091 19.743 17.8824 19.6699 17.9334 19.5819C17.9844 19.494 18.0113 19.3942 18.0112 19.2926V11.855C18.534 11.7147 18.9878 11.39 19.2881 10.9415C19.5884 10.4929 19.7148 9.95095 19.6438 9.41651C19.5727 8.88207 19.309 8.39155 18.9018 8.03624C18.4946 7.68093 17.9716 7.48505 17.4302 7.48505C16.8888 7.48505 16.3658 7.68093 15.9586 8.03624C15.5514 8.39155 15.2877 8.88207 15.2166 9.41651C15.1456 9.95095 15.272 10.4929 15.5723 10.9415C15.8726 11.39 16.3264 11.7147 16.8491 11.855V18.9587L13.7681 20.729C13.6798 20.7798 13.6064 20.8529 13.5554 20.9408C13.5044 21.0288 13.4776 21.1286 13.4776 21.2302V23.7322H9.48495V20.7699L12.5658 18.9996C12.6542 18.9488 12.7276 18.8757 12.7785 18.7878C12.8295 18.6998 12.8564 18.6 12.8564 18.4984V15.7111C13.3791 15.5708 13.8329 15.2461 14.1332 14.7976C14.4335 14.349 14.5599 13.807 14.4889 13.2726C14.4178 12.7382 14.1541 12.2476 13.7469 11.8923C13.3397 11.537 12.8167 11.3411 12.2753 11.3411C11.7339 11.3411 11.2109 11.537 10.8037 11.8923C10.3965 12.2476 10.1328 12.7382 10.0617 13.2726C9.99068 13.807 10.1171 14.349 10.4174 14.7976C10.7177 15.2461 11.1715 15.5708 11.6943 15.7111V18.1642L8.6133 19.9346C8.52495 19.9854 8.45158 20.0584 8.40058 20.1464C8.34959 20.2344 8.32275 20.3342 8.32278 20.4358V23.7319H7.96004C6.49039 23.7318 5.07274 23.1904 3.97996 22.2119C2.88718 21.2335 2.19653 19.8871 2.04094 18.432C1.88535 16.9769 2.27582 15.516 3.1372 14.3303C3.99857 13.1447 5.26996 12.3183 6.70664 12.01C6.82625 11.9843 6.93465 11.9216 7.01637 11.8309C7.0981 11.7402 7.14898 11.6261 7.16176 11.505C7.27669 10.4357 7.64514 9.40896 8.23677 8.50931C8.82839 7.60965 9.62625 6.86285 10.5646 6.33045C11.5029 5.79804 12.5549 5.49527 13.6338 5.44707C14.7128 5.39888 15.7877 5.60665 16.7702 6.05326C16.9026 6.11332 17.0528 6.12176 17.1911 6.07691C17.3294 6.03206 17.4458 5.93718 17.5173 5.81101C18.5548 3.97798 20.1957 2.55744 22.163 1.78912C24.1303 1.0208 26.3035 0.951738 28.316 1.59358C30.3285 2.23543 32.057 3.54889 33.2099 5.31231C34.3627 7.07574 34.8693 9.18116 34.6441 11.2733C34.6361 11.3489 34.6431 11.4254 34.6647 11.4983C34.6864 11.5712 34.7223 11.6392 34.7703 11.6983C34.8184 11.7574 34.8777 11.8065 34.9448 11.8428C35.0119 11.879 35.0856 11.9018 35.1615 11.9097C36.6781 12.0682 38.0758 12.8002 39.0662 13.9547C40.0567 15.1092 40.5644 16.5982 40.4846 18.1145C40.4049 19.6307 39.7438 21.0587 38.6376 22.1039C37.5315 23.1491 36.0646 23.7317 34.5397 23.7317H34.1751V20.4358C34.1751 20.3342 34.1483 20.2344 34.0973 20.1464C34.0463 20.0584 33.9729 19.9854 33.8845 19.9346L30.8042 18.1642V15.7111C31.3264 15.5708 31.7798 15.2463 32.0797 14.7981C32.3797 14.3499 32.5059 13.8084 32.4348 13.2745C32.3638 12.7405 32.1003 12.2505 31.6934 11.8955C31.2866 11.5405 30.7641 11.3448 30.2231 11.3448C29.6822 11.3448 29.1596 11.5405 28.7528 11.8955C28.3459 12.2505 28.0824 12.7405 28.0114 13.2745C27.9403 13.8084 28.0665 14.3499 28.3665 14.7981C28.6665 15.2463 29.1198 15.5708 29.6421 15.7111V18.4986C29.642 18.6002 29.6689 18.7 29.7199 18.788C29.7709 18.876 29.8442 18.949 29.9326 18.9998L33.0136 20.7702V23.7322L29.0227 23.7319ZM25.07 10.7744C24.8582 10.7744 24.6512 10.7119 24.4751 10.5947C24.299 10.4776 24.1617 10.3111 24.0807 10.1163C23.9996 9.92144 23.9784 9.70707 24.0198 9.50025C24.0611 9.29343 24.1631 9.10346 24.3128 8.95435C24.4626 8.80524 24.6534 8.7037 24.8611 8.66256C25.0688 8.62142 25.2841 8.64254 25.4797 8.72323C25.6754 8.80393 25.8426 8.94058 25.9603 9.11591C26.078 9.29125 26.1408 9.49738 26.1408 9.70825C26.1405 9.99094 26.0276 10.262 25.8268 10.4619C25.6261 10.6617 25.3539 10.7742 25.07 10.7744ZM21.0795 15.2256C20.8677 15.2256 20.6607 15.163 20.4846 15.0459C20.3085 14.9287 20.1713 14.7622 20.0902 14.5674C20.0092 14.3726 19.988 14.1582 20.0293 13.9514C20.0706 13.7446 20.1726 13.5546 20.3223 13.4055C20.4721 13.2564 20.6629 13.1549 20.8706 13.1137C21.0783 13.0726 21.2936 13.0937 21.4893 13.1744C21.6849 13.2551 21.8522 13.3917 21.9698 13.5671C22.0875 13.7424 22.1503 13.9485 22.1503 14.1594C22.15 14.4421 22.0371 14.7131 21.8364 14.913C21.6356 15.1129 21.3634 15.2253 21.0795 15.2256ZM17.4303 10.7744C17.2185 10.7744 17.0115 10.7119 16.8354 10.5947C16.6593 10.4776 16.522 10.3111 16.441 10.1163C16.36 9.92144 16.3387 9.70707 16.3801 9.50025C16.4214 9.29343 16.5234 9.10346 16.6731 8.95435C16.8229 8.80524 17.0137 8.7037 17.2214 8.66256C17.4291 8.62142 17.6444 8.64254 17.8401 8.72323C18.0357 8.80393 18.2029 8.94058 18.3206 9.11591C18.4383 9.29125 18.5011 9.49738 18.5011 9.70825C18.5008 9.99094 18.3879 10.262 18.1871 10.4619C17.9864 10.6617 17.7142 10.7742 17.4303 10.7744ZM12.2756 14.6305C12.0638 14.6305 11.8568 14.568 11.6807 14.4508C11.5046 14.3337 11.3673 14.1672 11.2863 13.9723C11.2052 13.7775 11.184 13.5631 11.2253 13.3563C11.2667 13.1495 11.3686 12.9595 11.5184 12.8104C11.6681 12.6613 11.8589 12.5598 12.0667 12.5186C12.2744 12.4775 12.4897 12.4986 12.6853 12.5793C12.881 12.66 13.0482 12.7967 13.1659 12.972C13.2835 13.1473 13.3463 13.3535 13.3463 13.5643C13.3461 13.8471 13.2332 14.1182 13.0323 14.3181C12.8315 14.518 12.5595 14.6304 12.2756 14.6305ZM30.2231 14.6305C30.0113 14.6305 29.8043 14.568 29.6282 14.4508C29.4521 14.3337 29.3149 14.1672 29.2338 13.9723C29.1528 13.7775 29.1316 13.5631 29.1729 13.3563C29.2142 13.1495 29.3162 12.9595 29.466 12.8104C29.6157 12.6613 29.8065 12.5598 30.0142 12.5186C30.2219 12.4775 30.4372 12.4986 30.6329 12.5793C30.8285 12.66 30.9958 12.7967 31.1134 12.972C31.2311 13.1473 31.2939 13.3535 31.2939 13.5643C31.2939 13.8471 31.1811 14.1183 30.9803 14.3182C30.7795 14.5182 30.5071 14.6305 30.2231 14.6305ZM40.2669 30.9053C40.0552 30.9053 39.8481 30.8427 39.672 30.7256C39.4959 30.6084 39.3587 30.4419 39.2777 30.2471C39.1966 30.0523 39.1754 29.8379 39.2167 29.6311C39.258 29.4243 39.36 29.2343 39.5098 29.0852C39.6595 28.9361 39.8503 28.8345 40.058 28.7934C40.2657 28.7523 40.481 28.7734 40.6767 28.8541C40.8724 28.9348 41.0396 29.0714 41.1573 29.2468C41.2749 29.4221 41.3377 29.6282 41.3377 29.8391C41.3375 30.1218 41.2246 30.3929 41.0238 30.5928C40.8231 30.7927 40.5509 30.9051 40.2669 30.9053Z" fill="var(--fill-0, #2C1D44)"/>
</g>
</svg>
