<svg preserveAspectRatio="none" width="100%" height="100%" overflow="visible" style="display: block;" viewBox="0 0 40 40" fill="none" xmlns="http://www.w3.org/2000/svg">
<g id="supply-chain_15320416 1" opacity="0.8" clip-path="url(#clip0_0_91)">
<path id="Vector" d="M39.3633 28.707L35.8313 24.8438C35.4164 24.3906 34.8727 24.1508 34.2586 24.1508H31.6078V23.3289C31.6078 22.4422 30.8859 21.7203 29.9992 21.7203H27.1523C27.1891 21.6023 27.2242 21.4828 27.2563 21.3625H28.2961C28.6414 21.3625 28.9211 21.0828 28.9211 20.7375V17.675C28.9211 17.3297 28.6414 17.05 28.2961 17.05H27.2563C27.0641 16.3227 26.7766 15.6289 26.3977 14.9781L27.1336 14.2422C27.3773 13.9984 27.3773 13.6023 27.1336 13.3586L24.968 11.193C24.8508 11.0758 24.6914 11.0102 24.5258 11.0102C24.3602 11.0102 24.2008 11.0758 24.0836 11.193L23.3477 11.9289C22.6969 11.5492 22.0031 11.2617 21.2758 11.0703V10.0312C21.2758 9.68594 20.9961 9.40625 20.6508 9.40625H19.0836V1.67187C19.0836 0.792969 18.3687 0.078125 17.4898 0.078125H1.67187C0.792969 0.078125 0.078125 0.792969 0.078125 1.67187V15.0883C0.078125 15.9672 0.792969 16.682 1.67187 16.682H11.0914C11.0531 16.8039 11.0164 16.9266 10.9844 17.05H9.94453C9.59922 17.05 9.31953 17.3297 9.31953 17.675V20.7375C9.31953 21.0828 9.59922 21.3625 9.94453 21.3625H10.9844C11.1766 22.0898 11.4641 22.7836 11.843 23.4344L11.107 24.1703C10.8633 24.4141 10.8633 24.8102 11.107 25.0539L13.2727 27.2195C13.4922 27.4391 13.8336 27.4602 14.0773 27.2859V36.3055C14.0773 37.1922 14.7992 37.9141 15.6859 37.9141H16.1109C16.3922 39.0648 17.432 39.9219 18.668 39.9219C19.9039 39.9219 20.9437 39.0648 21.225 37.9141H21.275C21.5563 39.0648 22.5961 39.9219 23.832 39.9219C25.068 39.9219 26.1078 39.0648 26.3891 37.9141H32.2125C32.4938 39.0648 33.5336 39.9219 34.7695 39.9219C36.0055 39.9219 37.0453 39.0648 37.3266 37.9141H38.3117C39.1984 37.9141 39.9203 37.1922 39.9203 36.3055V30.1453C39.9219 29.5961 39.7344 29.1125 39.3633 28.707ZM30 22.9703C30.1945 22.9703 30.3586 23.1344 30.3586 23.3289V32.8352H15.3281V26.7195C15.8508 26.9844 16.3969 27.193 16.9648 27.3422V28.382C16.9648 28.7273 17.2445 29.007 17.5898 29.007H20.6523C20.9977 29.007 21.2773 28.7273 21.2773 28.382V27.3422C22.0047 27.15 22.6984 26.8625 23.3492 26.4836L24.0852 27.2195C24.3289 27.4633 24.725 27.4633 24.9688 27.2195L27.1344 25.0539C27.2516 24.9367 27.3172 24.7773 27.3172 24.6117C27.3172 24.4461 27.2516 24.2867 27.1344 24.1695L26.3984 23.4336C26.4875 23.2813 26.5703 23.1266 26.6492 22.9695H30V22.9703ZM7.33516 1.32812H11.8266V4.08984L10.2484 2.79609C9.86172 2.47891 9.3 2.47891 8.91328 2.79609L7.33516 4.08984V1.32812ZM1.67187 15.432C1.48516 15.432 1.32812 15.2742 1.32812 15.0883V1.67187C1.32812 1.48516 1.48594 1.32812 1.67187 1.32812H6.08516V4.50547C6.08516 4.91719 6.31641 5.28203 6.6875 5.45781C6.83281 5.52656 6.98672 5.56016 7.13984 5.56016C7.37734 5.56016 7.6125 5.47812 7.80547 5.31953L9.58047 3.86406L11.3555 5.31953C11.6734 5.58047 12.1023 5.63359 12.4742 5.45781C12.8461 5.28203 13.0766 4.91719 13.0766 4.50547V1.32812H17.4898C17.6766 1.32812 17.8336 1.48594 17.8336 1.67187V9.40547H17.5883C17.243 9.40547 16.9633 9.68516 16.9633 10.0305V11.0703C16.2359 11.2625 15.5422 11.55 14.8914 11.9289L14.1555 11.193C13.9117 10.9492 13.5156 10.9492 13.2719 11.193L11.1078 13.3594C10.9906 13.4766 10.925 13.6352 10.925 13.8016C10.925 13.9672 10.9906 14.1266 11.1078 14.2438L11.8438 14.9797C11.757 15.1281 11.6758 15.2797 11.5984 15.4328H1.67187V15.432ZM12.4336 24.6125L13.0789 23.9672C13.2898 23.7562 13.3219 23.4266 13.157 23.1781C12.6352 22.3969 12.2781 21.5344 12.0945 20.6156C12.0359 20.3234 11.7797 20.1125 11.4813 20.1125H10.5695V18.3H11.4813C11.7797 18.3 12.0359 18.0898 12.0945 17.7969C12.2773 16.8781 12.6352 16.0164 13.157 15.2344C13.3227 14.9867 13.2898 14.6562 13.0789 14.4453L12.4336 13.8L13.7156 12.5188L14.3609 13.1641C14.5719 13.375 14.9016 13.4078 15.15 13.2422C15.9312 12.7211 16.7938 12.3633 17.7125 12.1805C18.0047 12.1219 18.2156 11.8656 18.2156 11.5672V10.6562H20.0281V11.568C20.0281 11.8664 20.2383 12.1227 20.5312 12.1812C21.45 12.3641 22.3117 12.7219 23.0938 13.2438C23.3414 13.4094 23.6719 13.3766 23.8828 13.1656L24.5281 12.5203L25.8094 13.8023L25.1641 14.4477C24.9531 14.6586 24.9211 14.9883 25.0859 15.2367C25.607 16.018 25.9648 16.8805 26.1484 17.7992C26.207 18.0914 26.4633 18.3023 26.7617 18.3023H27.6734V20.1148H26.7617C26.4633 20.1148 26.207 20.325 26.1484 20.618C25.9656 21.5367 25.6078 22.3992 25.0859 23.1805C24.9203 23.4281 24.9531 23.7586 25.1641 23.9695L25.8094 24.6148L24.5273 25.8961L23.882 25.2508C23.6711 25.0398 23.3406 25.0078 23.093 25.1727C22.3117 25.6937 21.4492 26.0516 20.5305 26.2344C20.2383 26.293 20.0273 26.5492 20.0273 26.8477V27.7594H18.2148V26.8477C18.2148 26.5492 18.0047 26.293 17.7117 26.2344C16.793 26.0516 15.9313 25.6938 15.1492 25.1719C14.9016 25.0063 14.5711 25.0391 14.3602 25.25L13.7148 25.8953L12.4336 24.6125ZM18.6688 38.6719C17.9063 38.6719 17.2859 38.0516 17.2859 37.2891C17.2859 36.5266 17.9063 35.9063 18.6688 35.9063C19.4313 35.9063 20.0516 36.5266 20.0516 37.2891C20.0516 38.0516 19.4305 38.6719 18.6688 38.6719ZM23.8328 38.6719C23.0703 38.6719 22.45 38.0516 22.45 37.2891C22.45 36.5266 23.0703 35.9063 23.8328 35.9063C24.5953 35.9063 25.2156 36.5266 25.2156 37.2891C25.2156 38.0516 24.5953 38.6719 23.8328 38.6719ZM23.8328 34.6563C22.5969 34.6563 21.557 35.5133 21.2758 36.6641H21.2258C20.9445 35.5133 19.9047 34.6563 18.6688 34.6563C17.432 34.6563 16.393 35.5133 16.1117 36.6641H15.6867C15.4922 36.6641 15.3281 36.5 15.3281 36.3055V34.0852H30.3586V36.6641H26.3898C26.1086 35.5133 25.0695 34.6563 23.8328 34.6563ZM34.7703 38.6719C34.0078 38.6719 33.3875 38.0516 33.3875 37.2891C33.3875 36.5266 34.0078 35.9063 34.7703 35.9063C35.5328 35.9063 36.1531 36.5266 36.1531 37.2891C36.1531 38.0516 35.5328 38.6719 34.7703 38.6719ZM38.3133 36.6641H37.3281C37.0469 35.5133 36.007 34.6563 34.7711 34.6563C33.5352 34.6563 32.4953 35.5133 32.2141 36.6641H31.6094V25.4008H34.2602C34.5211 25.4008 34.7344 25.4945 34.9102 25.6875L38.4422 29.5508C38.6016 29.725 38.6727 29.9086 38.6727 30.1453V32.8883H38.0984C37.5086 32.8883 37.0281 33.3688 37.0281 33.9586V35.0195C37.0281 35.6094 37.5086 36.0898 38.0984 36.0898H38.6719V36.3055C38.6719 36.5031 38.5109 36.6641 38.3133 36.6641ZM38.6719 34.1383V34.8406H38.2773V34.1383H38.6719ZM38.3602 30.7781V30.1453C38.3602 29.8805 38.2766 29.6656 38.0984 29.4711L34.8891 25.9609C34.6891 25.7422 34.4477 25.6359 34.1516 25.6359H32.4352C32.0898 25.6359 31.8102 25.9156 31.8102 26.2609V30.7781C31.8102 30.9437 31.8758 31.1031 31.993 31.2203C32.1102 31.3375 32.2695 31.4031 32.4352 31.4031H37.7352C38.0797 31.4031 38.3602 31.1234 38.3602 30.7781ZM33.0594 30.1531V26.8859H34.0406L37.0281 30.1531H33.0594ZM33.7477 32.3273C33.7477 32.6727 33.468 32.9523 33.1227 32.9523H32.4852C32.1398 32.9523 31.8602 32.6727 31.8602 32.3273C31.8602 31.982 32.1398 31.7023 32.4852 31.7023H33.1227C33.468 31.7023 33.7477 31.982 33.7477 32.3273ZM7.56172 10.1125H3.92266C3.40547 10.1125 2.98516 10.5328 2.98516 11.05V12.8375C2.98516 13.3547 3.40547 13.775 3.92266 13.775H7.56172C8.07891 13.775 8.49922 13.3547 8.49922 12.8375V11.05C8.49922 10.5336 8.07891 10.1125 7.56172 10.1125ZM7.24922 12.525H4.23516V11.3625H7.24922V12.525ZM19.1203 24.9055C22.2625 24.9055 24.8187 22.3492 24.8187 19.207C24.8187 16.0648 22.2625 13.5086 19.1203 13.5086C15.9781 13.5086 13.4219 16.0648 13.4219 19.207C13.4219 22.3492 15.9789 24.9055 19.1203 24.9055ZM19.1203 14.7586C21.5734 14.7586 23.5687 16.7539 23.5687 19.207C23.5687 21.6602 21.5734 23.6555 19.1203 23.6555C16.6672 23.6555 14.6719 21.6602 14.6719 19.207C14.6719 16.7539 16.668 14.7586 19.1203 14.7586ZM22.418 5.22031C22.418 4.875 22.6977 4.59531 23.043 4.59531H31.6984C33.3352 4.59531 34.6672 5.92734 34.6672 7.56406V14.8266L35.4141 13.9734C35.6414 13.7141 36.0359 13.6875 36.2961 13.9148C36.5555 14.1422 36.582 14.5367 36.3547 14.7969L34.5125 16.9008C34.3938 17.0367 34.2227 17.1141 34.0422 17.1141C33.8617 17.1141 33.6906 17.0359 33.5719 16.9008L31.7297 14.7969C31.5023 14.5375 31.5289 14.1422 31.7883 13.9148C32.0477 13.6875 32.443 13.7141 32.6703 13.9734L33.4172 14.8266V7.56406C33.4172 6.61641 32.6461 5.84531 31.6984 5.84531H23.043C22.6984 5.84531 22.418 5.56562 22.418 5.22031ZM11.9164 33.1938C11.9164 33.5391 11.6367 33.8188 11.2914 33.8188H6.54219C4.90547 33.8188 3.57344 32.4867 3.57344 30.85V23.5875L2.82656 24.4406C2.59922 24.7 2.20469 24.7266 1.94453 24.4992C1.68516 24.2719 1.65859 23.8773 1.88594 23.6172L3.72813 21.5133C3.84688 21.3773 4.01797 21.3 4.19844 21.3C4.37891 21.3 4.55 21.3781 4.66875 21.5133L6.51094 23.6172C6.73828 23.8766 6.71172 24.2719 6.45234 24.4992C6.33359 24.6031 6.18672 24.6539 6.04062 24.6539C5.86641 24.6539 5.69375 24.582 5.57031 24.4406L4.82344 23.5875V30.85C4.82344 31.7977 5.59453 32.5688 6.54219 32.5688H11.2914C11.6367 32.5688 11.9164 32.8484 11.9164 33.1938Z" fill="var(--fill-0, #2C1D44)"/>
</g>
<defs>
<clipPath id="clip0_0_91">
<rect width="40" height="40" fill="white"/>
</clipPath>
</defs>
</svg>
