<svg preserveAspectRatio="none" width="100%" height="100%" overflow="visible" style="display: block;" viewBox="0 0 34.477 25.5157" fill="none" xmlns="http://www.w3.org/2000/svg">
<g id="Group">
<path id="Vector" d="M33.9383 0C21.6559 0 12.8211 0 0.538703 0C0.215481 0 0 0.249992 0 0.62498V4.18736C0 4.56235 0.215481 4.81234 0.538703 4.81234H10.1815L12.6595 9.3122L11.5282 10.6247C11.3666 10.8121 11.3128 11.1871 11.4744 11.4371L12.0669 12.3746C11.9053 12.7496 11.7437 13.1871 11.636 13.5621L10.6663 13.7496C10.397 13.8121 10.2354 14.062 10.2354 14.3745V14.687L6.24896 13.1871V13.1246C6.24896 11.9371 5.38703 10.9371 4.36349 10.9371C3.33996 10.9371 2.47803 11.9371 2.47803 13.1246C2.47803 13.9995 2.909 14.687 3.50157 15.062L2.5319 21.7493C1.29289 21.9993 0.377092 23.1867 0.323222 24.6242C0.269352 25.4367 1.34676 25.4992 1.40063 24.6867C1.4545 23.6867 2.20868 22.8743 3.07061 22.9368C3.93253 22.9993 4.63285 23.8742 4.57898 24.8742C4.52511 25.6867 5.60251 25.7492 5.65638 24.9367C5.71025 23.4367 4.84833 22.1868 3.66318 21.8118L4.63285 15.312C5.17155 15.2495 5.65638 14.8745 5.92573 14.437L10.2354 16.1245V16.8745C10.2354 17.1869 10.397 17.4369 10.6663 17.4994L11.636 17.6869C11.7437 18.1244 11.9053 18.4994 12.0669 18.8744L11.4744 19.8119C11.3128 20.0618 11.3666 20.3743 11.5282 20.6243L12.9827 22.3118C13.1444 22.4993 13.4676 22.5618 13.6831 22.3743L14.4911 21.6868C14.8143 21.8743 15.1914 22.0618 15.5146 22.1868L15.6763 23.3117C15.7301 23.6242 15.9456 23.8117 16.215 23.8117H18.2082C18.4775 23.8117 18.693 23.6242 18.7469 23.3117L18.9085 22.1868C19.2856 22.0618 19.6088 21.8743 19.932 21.6868L20.7401 22.3118C20.9555 22.4993 21.2249 22.4368 21.4404 22.2493L22.8949 20.5618C23.0565 20.3743 23.1104 19.9993 22.9487 19.7494L22.41 18.7494C22.5717 18.3744 22.7333 17.9369 22.841 17.5619L23.8107 17.3744C24.08 17.3119 24.2416 17.0619 24.2416 16.7495V15.9995L28.5513 14.312C28.8745 14.812 29.3054 15.1245 29.8441 15.187L30.8138 21.6868C29.6287 22.0618 28.7667 23.3117 28.8206 24.8117C28.8745 25.6242 29.9519 25.5617 29.898 24.7492C29.8441 23.7492 30.5445 22.8743 31.4064 22.8118C32.2683 22.7493 33.0225 23.4992 33.0764 24.5617C33.1302 25.3742 34.2076 25.3117 34.1538 24.4992C34.0999 22.9993 33.1302 21.8118 31.9451 21.6243L30.9754 14.937C31.568 14.562 31.999 13.8745 31.999 12.9996C31.999 11.8121 31.137 10.8121 30.1135 10.8121C29.09 10.8121 28.228 11.8121 28.228 12.9996V13.0621L24.2416 14.562V14.2495C24.2416 13.937 24.08 13.6871 23.8107 13.6246L22.841 13.4371C22.7333 12.9996 22.5717 12.6246 22.41 12.2496L23.0026 11.3121C23.1642 11.0621 23.1104 10.7496 22.9487 10.4997L21.8175 9.1872L24.2955 4.68735H33.9383C34.2615 4.68735 34.477 4.43736 34.477 4.06237V0.62498C34.477 0.249992 34.2615 0 33.9383 0ZM4.36349 14.062C4.30962 14.062 4.25575 14.062 4.25575 14.062C3.87866 13.9995 3.60931 13.6246 3.60931 13.1246C3.60931 12.6246 3.9864 12.1871 4.41736 12.1871C4.84833 12.1871 5.22542 12.6246 5.22542 13.1246C5.17155 13.6246 4.79446 14.062 4.36349 14.062ZM30.1135 12.1871C30.5445 12.1871 30.9216 12.6246 30.9216 13.1246C30.9216 13.5621 30.6522 13.937 30.2751 14.062C30.2212 14.062 30.1674 14.062 30.1674 14.062C29.7364 14.062 29.3593 13.6246 29.3593 13.1246C29.3054 12.6246 29.6825 12.1871 30.1135 12.1871ZM24.9419 1.24996L20.6862 8.99971L20.5246 9.1247L19.9859 9.56219C19.6627 9.37469 19.2856 9.1872 18.9623 9.06221L18.9085 8.74972L18.8007 7.99974C18.7469 7.68725 18.5314 7.49976 18.262 7.49976H16.2688C15.9995 7.49976 15.784 7.68725 15.7301 7.99974L15.6224 8.43723L15.5146 9.1247C15.1376 9.2497 14.8143 9.43719 14.4911 9.62469L13.7908 9.06221L9.53504 1.24996H24.9419ZM1.07741 1.24996H3.17835V3.56238H1.07741V1.24996ZM4.25575 3.56238V1.24996H8.24216L9.53504 3.56238H4.25575ZM21.3326 12.6871C21.602 13.1871 21.8175 13.7496 21.9252 14.312C21.9791 14.562 22.1407 14.7495 22.3562 14.812L23.2181 14.9995V16.2495L22.3562 16.437C22.1407 16.4995 21.9791 16.687 21.9252 16.9369C21.8175 17.4994 21.602 17.9994 21.3865 18.5619C21.2788 18.7494 21.2788 19.0619 21.3865 19.2494L21.8713 20.0618L21.0633 20.9993L20.363 20.4368C20.2014 20.3118 19.932 20.3118 19.7704 20.4368C19.3394 20.7493 18.9085 20.9368 18.3698 21.0618C18.1543 21.1243 17.9927 21.3118 17.9388 21.5618L17.7772 22.4993H16.6998L16.5382 21.4993C16.4843 21.2493 16.3227 21.0618 16.1072 20.9993C15.6224 20.8743 15.1376 20.6243 14.7066 20.3118C14.545 20.1868 14.2756 20.1868 14.114 20.3118L13.4137 20.8743L12.6595 19.9993L13.1444 19.1869C13.2521 18.9994 13.2521 18.6869 13.1444 18.4994C12.875 17.9994 12.6595 17.4369 12.5518 16.8745C12.4979 16.6245 12.3363 16.437 12.1208 16.3745L11.3128 16.2495V14.937L12.1747 14.7495C12.3902 14.687 12.5518 14.4995 12.6057 14.2495C12.7134 13.6871 12.9289 13.1246 13.1982 12.6246C13.306 12.4371 13.306 12.1246 13.1982 11.9371L12.7134 11.1246L13.5214 10.1872C14.0063 10.4997 14.3834 11.1246 14.8143 10.8121C15.1376 10.5622 15.353 10.4997 15.5146 10.4372C16.0533 10.1872 16.215 10.1872 16.3766 10.1247C16.5382 10.0622 16.5921 9.87468 16.6459 9.68718L16.8075 8.81221V8.68722H17.7772L17.8311 9.06221L17.9388 9.68718C17.9927 9.93718 18.1543 10.1247 18.3698 10.1872C19.0162 10.3747 19.2856 10.5622 19.4472 10.6872C19.7704 10.8746 20.0398 11.0621 20.3091 10.8746L20.9555 10.3122L21.0094 10.2497L21.8175 11.1871L21.3326 11.9996C21.2249 12.1871 21.2249 12.4996 21.3326 12.6871ZM26.2348 1.24996H30.2212V3.56238H24.9419L26.2348 1.24996ZM33.3996 3.56238H31.2986V1.24996H33.3996V3.56238Z" fill="var(--fill-0, #2C1D44)"/>
</g>
</svg>
