<svg preserveAspectRatio="none" width="100%" height="100%" overflow="visible" style="display: block;" viewBox="0 0 40 40" fill="none" xmlns="http://www.w3.org/2000/svg">
<g id="saas_17321064 1" opacity="0.8">
<path id="Vector" d="M7.33389 16.1327C7.34726 16.2033 7.34659 16.2758 7.33192 16.3461C7.31726 16.4164 7.28888 16.4832 7.24841 16.5425C7.20794 16.6019 7.15618 16.6527 7.09607 16.692C7.03597 16.7314 6.9687 16.7585 6.89811 16.7718C4.9467 17.1411 3.59795 18.6263 3.46217 20.556C3.45249 20.694 3.39087 20.8232 3.28972 20.9175C3.18858 21.0119 3.05543 21.0644 2.91709 21.0646C2.9042 21.0646 2.89124 21.0641 2.87803 21.0632C2.80638 21.0582 2.73641 21.0391 2.67214 21.007C2.60787 20.9749 2.55054 20.9305 2.50344 20.8763C2.45634 20.822 2.42039 20.759 2.39764 20.6909C2.37489 20.6228 2.36578 20.5508 2.37084 20.4792C2.54272 18.0388 4.23975 16.1618 6.69467 15.6972C6.76524 15.6838 6.83775 15.6845 6.90806 15.6991C6.97838 15.7138 7.04512 15.7421 7.10448 15.7825C7.16384 15.823 7.21465 15.8747 7.25401 15.9348C7.29337 15.9949 7.32052 16.0621 7.33389 16.1327ZM34.2352 23.8767H25.8283C25.6833 23.8767 25.5442 23.9344 25.4416 24.0369C25.3391 24.1395 25.2815 24.2786 25.2815 24.4236C25.2815 24.5687 25.3391 24.7078 25.4416 24.8103C25.5442 24.9129 25.6833 24.9705 25.8283 24.9705H34.2769C34.3039 24.9705 34.3309 24.9685 34.3576 24.9645C35.5557 24.7856 36.482 24.2885 37.0365 23.527C37.5822 22.7777 37.7631 21.816 37.5736 20.6692C37.2348 18.6174 35.6301 16.5403 33.2183 16.5403C33.0733 16.5403 32.9342 16.598 32.8316 16.7005C32.7291 16.8031 32.6715 16.9422 32.6715 17.0872C32.6715 17.2323 32.7291 17.3714 32.8316 17.4739C32.9342 17.5765 33.0733 17.6341 33.2183 17.6341C35.0207 17.6341 36.2307 19.2509 36.4944 20.8479C36.6342 21.6949 36.5191 22.3798 36.1522 22.8835C35.7742 23.4024 35.1294 23.7365 34.2352 23.8767ZM38.8261 25.0794C37.8678 26.3138 36.3733 27.0903 34.5045 27.3253C34.4819 27.3281 34.4591 27.3296 34.4363 27.3296H21.7247C21.5797 27.3296 21.4406 27.2719 21.338 27.1694C21.2355 27.0668 21.1779 26.9277 21.1779 26.7827C21.1779 26.6376 21.2355 26.4985 21.338 26.396C21.4406 26.2934 21.5797 26.2358 21.7247 26.2358H34.4015C37.9211 25.7785 39.0309 23.282 38.8942 21.0931C38.7156 18.2337 36.5436 15.2749 33.2181 15.2739C33.1051 15.2739 32.9948 15.2389 32.9024 15.1737C32.8101 15.1085 32.7403 15.0163 32.7025 14.9097C32.4324 14.1419 32.0218 13.4311 31.4915 12.8137C31.4813 12.8341 31.4718 12.8548 31.4612 12.8751L31.7983 13.4382C31.8543 13.5317 31.8811 13.6398 31.8752 13.7486C31.8694 13.8575 31.8311 13.9621 31.7654 14.0491C31.4679 14.4422 31.1182 14.7928 30.7258 15.0913C30.6387 15.1576 30.5337 15.1963 30.4244 15.2022C30.3151 15.2082 30.2065 15.1813 30.1127 15.1249L29.5502 14.7878C29.3196 14.9083 29.0788 15.0082 28.8306 15.0864L28.6707 15.7215C28.6441 15.8275 28.5864 15.923 28.505 15.9959C28.4236 16.0688 28.3223 16.1156 28.214 16.1303C27.7263 16.1968 27.2318 16.1968 26.7441 16.1303C26.6359 16.1156 26.5345 16.0688 26.4531 15.9959C26.3718 15.923 26.3141 15.8275 26.2875 15.7215L26.1278 15.0848C25.8801 15.0065 25.6396 14.9069 25.409 14.7872L25.3026 14.8502L24.8488 15.1242C24.7552 15.1808 24.6468 15.208 24.5375 15.2023C24.4283 15.1966 24.3233 15.1583 24.2361 15.0923C23.8419 14.794 23.4909 14.4426 23.1929 14.0482C23.127 13.9609 23.0887 13.8559 23.083 13.7467C23.0773 13.6374 23.1045 13.529 23.1611 13.4354L23.4979 12.8753C23.3783 12.6447 23.2787 12.4043 23.2003 12.1566L22.5637 11.9964C22.4575 11.9696 22.3617 11.9116 22.2887 11.8299C22.2158 11.7481 22.1691 11.6463 22.1547 11.5377C22.0863 11.0514 22.0863 10.558 22.1547 10.0717C22.1691 9.96312 22.2158 9.86133 22.2887 9.77956C22.3616 9.69779 22.4575 9.63981 22.5637 9.61315L23.1998 9.45292C23.278 9.20514 23.3777 8.96465 23.4976 8.73417L23.4351 8.62831L23.1605 8.17128C23.1021 8.0737 23.0756 7.96028 23.0848 7.8469C21.9479 6.48419 20.4098 5.51509 18.6898 5.07768C16.9698 4.64027 15.1556 4.75688 13.5058 5.41088C11.856 6.06488 10.4546 7.22291 9.50146 8.71996C8.54829 10.217 8.09193 11.9767 8.19741 13.7483C8.20171 13.8217 8.19117 13.8952 8.16643 13.9644C8.14169 14.0336 8.10324 14.0971 8.0534 14.1512C8.00355 14.2052 7.94333 14.2486 7.87632 14.2788C7.80932 14.309 7.73691 14.3255 7.66342 14.3271C3.50717 14.4187 1.05928 17.7349 1.09405 20.8879C1.12124 23.3546 2.78295 26.2348 7.3767 26.2348H11.6176C11.7626 26.2348 11.9017 26.2924 12.0043 26.395C12.1068 26.4975 12.1644 26.6366 12.1644 26.7817C12.1644 26.9267 12.1068 27.0658 12.0043 27.1684C11.9017 27.2709 11.7626 27.3285 11.6176 27.3285H7.37663C5.06959 27.3285 3.15522 26.6502 1.84061 25.3667C0.672876 24.2278 0.0192047 22.641 6.40897e-05 20.9004C-0.0077214 18.9943 0.694067 17.1535 1.96881 15.7364C2.90194 14.7021 4.53014 13.4707 7.08873 13.2624C7.0853 11.3275 7.67131 9.43758 8.76875 7.84411C9.86619 6.25063 11.423 5.02924 13.2319 4.34257C15.0407 3.65589 17.0158 3.5365 18.8943 4.0003C20.7727 4.4641 22.4652 5.48908 23.7466 6.93878C23.9012 6.78928 24.0647 6.64918 24.2361 6.51924C24.323 6.45345 24.4277 6.41515 24.5366 6.40928C24.6455 6.4034 24.7536 6.43022 24.8472 6.48628L25.4102 6.82331C25.6403 6.70345 25.8804 6.60393 26.1278 6.52589L26.2878 5.8894C26.3143 5.78414 26.3716 5.68916 26.4523 5.61655C26.533 5.54394 26.6335 5.49698 26.7409 5.48167C27.231 5.41229 27.7284 5.41229 28.2184 5.48167C28.3257 5.49713 28.426 5.54413 28.5065 5.6167C28.587 5.68927 28.6442 5.78413 28.6707 5.88924L28.8312 6.5251C29.0787 6.60304 29.3189 6.70264 29.5489 6.82276L30.1146 6.48565C30.2083 6.42973 30.3166 6.40313 30.4256 6.40929C30.5346 6.41544 30.6392 6.45406 30.7261 6.52018C31.1174 6.81809 31.4667 7.16744 31.7645 7.55878C31.8306 7.6456 31.8693 7.75022 31.8754 7.85918C31.8816 7.96814 31.855 8.07645 31.7991 8.17018L31.4619 8.73588C31.582 8.96591 31.6816 9.20605 31.7596 9.45354L32.397 9.61393C32.5033 9.64059 32.5991 9.69857 32.672 9.78034C32.745 9.86211 32.7917 9.9639 32.8061 10.0725C32.8384 10.3151 32.8548 10.5596 32.8551 10.8044C32.8551 11.05 32.8387 11.2953 32.8061 11.5388C32.7917 11.6474 32.745 11.7492 32.6721 11.831C32.5991 11.9128 32.5033 11.9708 32.397 11.9974L32.2601 12.0319C32.8219 12.6732 33.2742 13.4026 33.5988 14.191C35.2776 14.2914 36.834 15.0515 38.0154 16.3567C39.1731 17.6503 39.8665 19.2929 39.9861 21.0247C40.0815 22.5527 39.6695 23.9928 38.8261 25.0794ZM30.3633 12.5942C30.5574 12.282 30.6992 11.9401 30.7831 11.5822C30.8058 11.4844 30.8549 11.3946 30.9252 11.3229C30.9955 11.2511 31.0842 11.2001 31.1815 11.1754L31.7554 11.0301C31.7594 10.9549 31.7613 10.8799 31.7613 10.8042C31.7613 10.7286 31.7594 10.6552 31.7555 10.5807L31.1815 10.4353C31.0841 10.4105 30.9954 10.3594 30.9251 10.2876C30.8548 10.2157 30.8057 10.1259 30.7831 10.0279C30.7002 9.67042 30.5587 9.32912 30.3643 9.01784C30.3113 8.93262 30.2828 8.83448 30.2819 8.73415C30.281 8.63382 30.3077 8.53517 30.3591 8.44901L30.662 7.9412C30.5614 7.82965 30.4552 7.72337 30.3437 7.62276L29.8358 7.92565C29.7497 7.97705 29.651 8.00376 29.5507 8.00285C29.4504 8.00194 29.3522 7.97345 29.267 7.92049C28.9557 7.72614 28.6144 7.58465 28.2569 7.50174C28.159 7.47918 28.0691 7.43006 27.9973 7.35977C27.9254 7.28948 27.8743 7.20074 27.8496 7.10331L27.7041 6.52956C27.5545 6.52159 27.4045 6.52159 27.2549 6.52956L27.1123 7.10073C27.088 7.19874 27.037 7.2881 26.9649 7.3589C26.8929 7.42969 26.8027 7.47916 26.7043 7.50182C26.3457 7.58529 26.0033 7.72705 25.6907 7.92143C25.6055 7.97402 25.5076 8.00222 25.4075 8.00298C25.3074 8.00374 25.209 7.97702 25.1231 7.92573L24.6161 7.62292C24.5046 7.72309 24.3983 7.82902 24.2979 7.94026L24.601 8.45112C24.6518 8.53716 24.6781 8.63548 24.677 8.7354C24.6759 8.83533 24.6474 8.93304 24.5947 9.01792C24.4007 9.33049 24.2591 9.67258 24.1752 10.0307C24.1523 10.128 24.1031 10.2171 24.0331 10.2884C23.9631 10.3597 23.8749 10.4105 23.778 10.4352L23.2041 10.581C23.1998 10.6573 23.1976 10.7314 23.1976 10.8043C23.1976 10.8772 23.1998 10.9528 23.2042 11.0299L23.778 11.1757C23.8748 11.2003 23.9629 11.251 24.0329 11.3222C24.1029 11.3934 24.1521 11.4824 24.1751 11.5796C24.2599 11.9381 24.4018 12.2807 24.5954 12.5942C24.6478 12.679 24.676 12.7765 24.677 12.8762C24.678 12.9759 24.6517 13.0739 24.601 13.1597L24.298 13.6699C24.398 13.7811 24.5038 13.8869 24.615 13.987L24.7419 13.9104L25.1252 13.6839C25.211 13.6332 25.309 13.6069 25.4087 13.6079C25.5083 13.6089 25.6058 13.6371 25.6906 13.6894C26.0046 13.8832 26.3478 14.0251 26.7069 14.1096C26.8047 14.1326 26.8942 14.1821 26.9656 14.2526C27.0371 14.3232 27.0878 14.412 27.1122 14.5094L27.2549 15.0797C27.4045 15.0875 27.5545 15.0875 27.7041 15.0797L27.8497 14.5067C27.8746 14.4095 27.9257 14.3209 27.9975 14.2507C28.0693 14.1806 28.1591 14.1315 28.2569 14.109C28.6144 14.0261 28.9557 13.8846 29.267 13.6902C29.3519 13.6375 29.4496 13.6091 29.5495 13.608C29.6494 13.6069 29.7477 13.6331 29.8337 13.6839L30.3447 13.987C30.4559 13.8865 30.5619 13.7803 30.6621 13.6689L30.3592 13.1617C30.3079 13.0758 30.2811 12.9775 30.2819 12.8774C30.2826 12.7773 30.3108 12.6793 30.3633 12.5942ZM22.1743 24.4238C22.1743 24.5688 22.2319 24.7079 22.3345 24.8105C22.437 24.913 22.5761 24.9707 22.7212 24.9707H24.0144C24.1595 24.9707 24.2986 24.913 24.4011 24.8105C24.5037 24.7079 24.5613 24.5688 24.5613 24.4238C24.5613 24.2787 24.5037 24.1396 24.4011 24.0371C24.2986 23.9345 24.1595 23.8769 24.0144 23.8769H22.7213C22.6495 23.8769 22.5783 23.891 22.512 23.9185C22.4456 23.946 22.3853 23.9862 22.3345 24.037C22.2837 24.0878 22.2434 24.1481 22.2159 24.2145C22.1884 24.2808 22.1743 24.3519 22.1743 24.4238ZM25.6047 29.969C25.6049 30.3595 25.4669 30.7376 25.215 31.036C24.9632 31.3345 24.6138 31.5342 24.2288 31.5998C23.8438 31.6653 23.448 31.5924 23.1116 31.394C22.7753 31.1956 22.52 30.8845 22.391 30.5159H20.1967C20.0517 30.5159 19.9126 30.4583 19.81 30.3557C19.7074 30.2532 19.6498 30.1141 19.6498 29.969V22.146L19.5175 22.067C19.1602 22.2616 18.7837 22.4186 18.3941 22.5357V33.067C18.7628 33.1961 19.0739 33.4516 19.2723 33.7881C19.4707 34.1246 19.5436 34.5205 19.4781 34.9056C19.4126 35.2908 19.213 35.6403 18.9145 35.8923C18.616 36.1443 18.2379 36.2826 17.8472 36.2826C17.4566 36.2826 17.0785 36.1443 16.78 35.8923C16.4815 35.6403 16.2819 35.2908 16.2164 34.9056C16.1509 34.5205 16.2238 34.1246 16.4222 33.7881C16.6206 33.4516 16.9317 33.1961 17.3004 33.067V23.981C17.0911 23.9992 16.8813 24.0092 16.6715 24.0092C16.4616 24.0092 16.2518 23.9992 16.0425 23.981V31.9092C16.0425 32.0542 15.9849 32.1933 15.8823 32.2959C15.7797 32.3984 15.6406 32.456 15.4956 32.456H9.09545C8.96631 32.8247 8.71086 33.1358 8.37433 33.3342C8.03781 33.5326 7.64193 33.6055 7.2568 33.54C6.87167 33.4745 6.52215 33.2749 6.27013 32.9764C6.01812 32.6779 5.87987 32.2998 5.87987 31.9092C5.87987 31.5185 6.01812 31.1405 6.27013 30.842C6.52215 30.5435 6.87167 30.3438 7.2568 30.2783C7.64193 30.2128 8.03781 30.2857 8.37433 30.4841C8.71086 30.6825 8.96631 30.9936 9.09545 31.3623H14.9482V22.5351C14.5586 22.4182 14.1822 22.2613 13.8249 22.0669L13.6926 22.1459V29.5571C13.6926 29.7022 13.6349 29.8413 13.5324 29.9438C13.4298 30.0464 13.2907 30.104 13.1457 30.104H9.92147C9.77643 30.104 9.63733 30.0464 9.53477 29.9438C9.43221 29.8413 9.37459 29.7022 9.37459 29.5571C9.37459 29.4121 9.43221 29.273 9.53477 29.1704C9.63733 29.0679 9.77643 29.0103 9.92147 29.0103H12.5989V22.6591C12.5055 22.647 12.4168 22.6109 12.3415 22.5544C11.8178 22.1571 11.3505 21.6906 10.9523 21.1675C10.8861 21.0806 10.8475 20.9759 10.8414 20.8668C10.8353 20.7577 10.862 20.6493 10.918 20.5555L11.4411 19.6809C11.2394 19.3126 11.0777 18.9239 10.9587 18.5212L9.97436 18.2729C9.86829 18.2462 9.77265 18.1884 9.69979 18.1068C9.62694 18.0252 9.58023 17.9237 9.56569 17.8153C9.47652 17.1652 9.47652 16.506 9.56569 15.856C9.58018 15.7478 9.62671 15.6465 9.69927 15.565C9.77183 15.4835 9.86712 15.4255 9.97287 15.3986L10.9593 15.1486C11.0782 14.7457 11.2398 14.3566 11.4414 13.988L10.9188 13.1164C10.8625 13.0226 10.8356 12.9141 10.8417 12.8048C10.8477 12.6956 10.8863 12.5907 10.9526 12.5036C11.3505 11.9795 11.8184 11.5126 12.3433 11.1158C12.4301 11.0504 12.5344 11.0123 12.6429 11.0065C12.7515 11.0006 12.8593 11.0272 12.9526 11.0829L13.8257 11.6041C14.1944 11.4032 14.5833 11.2419 14.9859 11.1228L15.2335 10.1371C15.2602 10.031 15.318 9.93536 15.3996 9.86251C15.4812 9.78966 15.5827 9.74294 15.6911 9.72839C16.3419 9.63911 17.0019 9.63911 17.6528 9.72839C17.7612 9.74294 17.8627 9.78966 17.9443 9.86251C18.0259 9.93536 18.0837 10.031 18.1104 10.1371L18.3587 11.1214C18.7613 11.2405 19.15 11.4021 19.5183 11.6036L20.3902 11.083C20.4836 11.0273 20.5914 11.0007 20.6999 11.0065C20.8085 11.0124 20.9128 11.0505 20.9996 11.1159C21.5245 11.5126 21.9924 11.9796 22.3902 12.5037C22.4565 12.5907 22.4952 12.6957 22.5012 12.8049C22.5072 12.9142 22.4804 13.0227 22.424 13.1165L21.903 13.9871C22.1042 14.3561 22.2653 14.7456 22.3837 15.1488L23.37 15.3988C23.475 15.4256 23.5696 15.4829 23.642 15.5636C23.7143 15.6443 23.761 15.7446 23.7762 15.8519C23.8661 16.5045 23.8661 17.1664 23.7762 17.8191C23.761 17.9267 23.714 18.0274 23.6414 18.1082C23.5687 18.189 23.4735 18.2463 23.3681 18.2728L22.3837 18.5211C22.2648 18.9236 22.1036 19.3124 21.9027 19.681L22.4245 20.5553C22.4806 20.649 22.5073 20.7575 22.5012 20.8666C22.4951 20.9757 22.4565 21.0804 22.3903 21.1674C21.9922 21.6904 21.5248 22.1569 21.0011 22.5542C20.9257 22.6109 20.8368 22.647 20.7433 22.659V29.4218H22.391C22.52 29.0532 22.7753 28.7421 23.1116 28.5437C23.448 28.3453 23.8438 28.2724 24.2288 28.338C24.6138 28.4035 24.9632 28.6032 25.215 28.9017C25.4669 29.2002 25.6049 29.5782 25.6047 29.9687V29.969ZM8.09639 31.9089C8.09639 31.7981 8.06353 31.6898 8.00196 31.5976C7.94039 31.5055 7.85288 31.4337 7.7505 31.3913C7.64812 31.3489 7.53546 31.3378 7.42677 31.3594C7.31808 31.381 7.21824 31.4344 7.13988 31.5127C7.06152 31.5911 7.00815 31.6909 6.98653 31.7996C6.96491 31.9083 6.97601 32.021 7.01842 32.1234C7.06083 32.2257 7.13264 32.3132 7.22479 32.3748C7.31693 32.4364 7.42526 32.4692 7.53608 32.4692C7.68464 32.4691 7.82707 32.41 7.93212 32.305C8.03717 32.1999 8.09625 32.0575 8.09639 31.9089ZM17.8471 34.066C17.7363 34.066 17.628 34.0988 17.5358 34.1604C17.4437 34.2219 17.3719 34.3094 17.3295 34.4118C17.2871 34.5142 17.276 34.6268 17.2976 34.7355C17.3192 34.8442 17.3726 34.944 17.4509 35.0223C17.5293 35.1007 17.6291 35.1541 17.7378 35.1757C17.8465 35.1973 17.9591 35.1862 18.0615 35.1438C18.1639 35.1014 18.2514 35.0296 18.3129 34.9374C18.3745 34.8453 18.4073 34.737 18.4073 34.6262C18.4072 34.4777 18.3481 34.3353 18.2431 34.2302C18.138 34.1252 17.9956 34.0661 17.8471 34.066ZM20.624 21.4538C20.8625 21.2496 21.0851 21.0274 21.2897 20.7892L20.7983 19.9639C20.7473 19.878 20.7207 19.7798 20.7216 19.6799C20.7224 19.5801 20.7506 19.4824 20.803 19.3974C21.081 18.9495 21.2841 18.4593 21.4046 17.9461C21.4273 17.8484 21.4765 17.7587 21.5468 17.6871C21.6171 17.6154 21.7057 17.5645 21.803 17.5399L22.7327 17.3047C22.7444 17.151 22.7502 16.9938 22.7502 16.8343C22.7502 16.6749 22.7444 16.5186 22.7326 16.365L21.8048 16.1314C21.7072 16.1071 21.6182 16.0562 21.5477 15.9846C21.4771 15.9129 21.4276 15.8231 21.4047 15.7252C21.2855 15.2115 21.0826 14.721 20.8041 14.2732C20.7512 14.1881 20.7227 14.0902 20.7217 13.99C20.7207 13.8898 20.7472 13.7912 20.7984 13.7051L21.2895 12.8814C21.0854 12.6433 20.8632 12.4213 20.6249 12.2174L19.8022 12.709C19.716 12.7606 19.6173 12.7874 19.5168 12.7865C19.4163 12.7857 19.318 12.7571 19.2327 12.7041C18.7855 12.4253 18.2956 12.2216 17.7825 12.1012C17.6849 12.0784 17.5954 12.0292 17.5239 11.959C17.4524 11.8888 17.4015 11.8003 17.3769 11.7032L17.1419 10.7743C16.8286 10.7498 16.5139 10.7498 16.2007 10.7743L15.9683 11.7009C15.944 11.7982 15.8934 11.887 15.8221 11.9575C15.7507 12.028 15.6613 12.0775 15.5637 12.1006C15.0496 12.2216 14.5586 12.4253 14.1098 12.7038C14.0245 12.7568 13.9262 12.7854 13.8258 12.7862C13.7253 12.7871 13.6265 12.7603 13.5403 12.7087L12.7176 12.2171C12.4793 12.421 12.2571 12.643 12.053 12.8811L12.5451 13.7032C12.5967 13.7895 12.6236 13.8882 12.6227 13.9887C12.6219 14.0892 12.5934 14.1875 12.5403 14.2728C12.2611 14.7205 12.0574 15.211 11.9374 15.7248C11.9145 15.8228 11.8651 15.9125 11.7945 15.9842C11.7239 16.0559 11.6349 16.1067 11.5373 16.131L10.6103 16.3644C10.598 16.5223 10.5919 16.6778 10.5919 16.8339C10.5919 16.9884 10.5982 17.1457 10.6105 17.3045L11.5393 17.5395C11.6366 17.5641 11.7252 17.615 11.7955 17.6867C11.8658 17.7584 11.915 17.848 11.9377 17.9457C12.0579 18.4587 12.2616 18.9485 12.5406 19.3954C12.5937 19.4808 12.6222 19.5791 12.623 19.6795C12.6239 19.78 12.5971 19.8788 12.5455 19.965L12.0527 20.7889C12.2573 21.0269 12.4799 21.2489 12.7183 21.4529L13.5402 20.9617C13.6264 20.9101 13.7252 20.8832 13.8257 20.8841C13.9262 20.8849 14.0246 20.9134 14.1099 20.9665C14.5577 21.2449 15.0482 21.4479 15.5618 21.5672C15.6597 21.5901 15.7495 21.6395 15.8212 21.7101C15.8928 21.7807 15.9437 21.8697 15.968 21.9673L16.2006 22.8964C16.5137 22.9203 16.8281 22.9203 17.1412 22.8964L17.3109 22.2246C17.3115 22.2213 17.3126 22.2181 17.3133 22.2148L17.3765 21.9648C17.4011 21.8677 17.452 21.7792 17.5235 21.709C17.5951 21.6388 17.6845 21.5896 17.7821 21.5668C18.2951 21.4471 18.785 21.2442 19.2322 20.966C19.3176 20.9129 19.4159 20.8844 19.5164 20.8835C19.6169 20.8827 19.7157 20.9096 19.8019 20.9612L20.624 21.4538ZM24.5107 29.9694C24.5107 29.8586 24.4779 29.7502 24.4163 29.6581C24.3547 29.5659 24.2672 29.4941 24.1648 29.4517C24.0625 29.4093 23.9498 29.3982 23.8411 29.4198C23.7324 29.4414 23.6326 29.4947 23.5542 29.5731C23.4758 29.6515 23.4225 29.7513 23.4008 29.86C23.3792 29.9687 23.3903 30.0813 23.4327 30.1837C23.4751 30.2861 23.5469 30.3736 23.6391 30.4352C23.7312 30.4968 23.8395 30.5296 23.9504 30.5296C24.099 30.5295 24.2414 30.4703 24.3465 30.3652C24.4516 30.2601 24.5106 30.1176 24.5107 29.969V29.9694ZM30.0692 10.8046C30.0692 11.3167 29.9174 11.8172 29.6329 12.2429C29.3484 12.6686 28.9441 13.0005 28.4711 13.1964C27.998 13.3923 27.4775 13.4436 26.9753 13.3437C26.4731 13.2438 26.0118 12.9973 25.6498 12.6352C25.2877 12.2732 25.0412 11.8119 24.9413 11.3097C24.8414 10.8075 24.8927 10.287 25.0886 9.81393C25.2845 9.34089 25.6164 8.93657 26.0421 8.6521C26.4678 8.36764 26.9683 8.21581 27.4804 8.21581C28.1667 8.21659 28.8246 8.48954 29.3099 8.97479C29.7953 9.46003 30.0683 10.118 30.0692 10.8042V10.8046ZM28.9754 10.8046C28.9754 10.509 28.8878 10.22 28.7235 9.97414C28.5593 9.72832 28.3258 9.53672 28.0527 9.42358C27.7795 9.31044 27.4789 9.28084 27.189 9.33851C26.899 9.39619 26.6326 9.53856 26.4236 9.74762C26.2145 9.95668 26.0722 10.223 26.0145 10.513C25.9568 10.803 25.9864 11.1035 26.0996 11.3767C26.2127 11.6498 26.4043 11.8833 26.6501 12.0476C26.8959 12.2118 27.185 12.2995 27.4806 12.2995C27.877 12.299 28.2569 12.1413 28.5371 11.8609C28.8173 11.5806 28.9749 11.2006 28.9752 10.8042L28.9754 10.8046ZM20.4735 16.8345C20.4739 17.5866 20.2513 18.322 19.8338 18.9476C19.4162 19.5732 18.8225 20.0609 18.1278 20.3491C17.433 20.6372 16.6684 20.7128 15.9306 20.5664C15.1929 20.4199 14.5151 20.0579 13.9831 19.5262C13.4511 18.9945 13.0888 18.317 12.9419 17.5793C12.795 16.8417 12.8702 16.077 13.1579 15.3821C13.4456 14.6872 13.933 14.0932 14.5584 13.6753C15.1838 13.2574 15.919 13.0343 16.6712 13.0343C17.6789 13.0355 18.645 13.4362 19.3578 14.1485C20.0705 14.8609 20.4718 15.8268 20.4735 16.8345ZM19.3797 16.8345C19.3798 16.2988 19.2209 15.7751 18.9233 15.3297C18.6257 14.8843 18.2027 14.5371 17.7078 14.3321C17.2129 14.1271 16.6683 14.0735 16.1429 14.178C15.6175 14.2825 15.1349 14.5405 14.7561 14.9193C14.3773 15.2981 14.1194 15.7807 14.0149 16.3061C13.9104 16.8315 13.9641 17.3761 14.1691 17.871C14.3741 18.3659 14.7213 18.7889 15.1667 19.0865C15.6121 19.384 16.1358 19.5429 16.6715 19.5428C17.3896 19.5422 18.0781 19.2567 18.5858 18.7489C19.0936 18.2411 19.3791 17.5526 19.3796 16.8345H19.3797Z" fill="var(--fill-0, #2C1D44)"/>
</g>
</svg>
