<svg preserveAspectRatio="none" width="100%" height="100%" overflow="visible" style="display: block;" viewBox="0 0 44.6361 40" fill="none" xmlns="http://www.w3.org/2000/svg">
<g id="Group 171">
<path id="Vector" opacity="0.8" d="M30.1349 14.9062L31.7773 13.9581C32.2633 14.2497 32.8186 14.4058 33.3854 14.4102C33.9521 14.4145 34.5097 14.2671 35.0002 13.983C35.363 13.7749 35.6812 13.4971 35.9366 13.1658C36.1919 12.8345 36.3793 12.456 36.4882 12.0521C36.597 11.6482 36.6251 11.2268 36.5708 10.812C36.5165 10.3972 36.3809 9.99722 36.1718 9.63493C35.9627 9.27264 35.6841 8.95517 35.3521 8.7007C35.0201 8.44624 34.6411 8.25977 34.2369 8.15199C33.8328 8.04421 33.4113 8.01724 32.9966 8.07261C32.582 8.12798 32.1824 8.26461 31.8206 8.47467C31.3304 8.75855 30.9248 9.1682 30.6458 9.66128C30.3669 10.1544 30.2246 10.713 30.2338 11.2794L28.589 12.2284L23.3599 3.17058C23.3198 3.10115 23.2665 3.0403 23.2029 2.99149C23.1393 2.94269 23.0667 2.90689 22.9892 2.88615C22.9118 2.86541 22.831 2.86012 22.7516 2.8706C22.6721 2.88107 22.5954 2.90711 22.526 2.9472C16.5013 6.42601 14.4293 14.1566 17.9064 20.1799C18.5245 21.2512 19.2972 22.2255 20.1995 23.0713V34.961C19.1632 35.2619 18.2103 35.7978 17.4149 36.5271C16.6194 37.2563 16.003 38.1592 15.6134 39.1655C15.5768 39.2581 15.5635 39.3582 15.5745 39.4571C15.5855 39.556 15.6205 39.6507 15.6765 39.733C15.7324 39.8153 15.8077 39.8826 15.8957 39.9292C15.9836 39.9757 16.0816 40 16.1812 40H28.6508C28.7503 40 28.8484 39.9757 28.9363 39.9292C29.0243 39.8826 29.0995 39.8153 29.1555 39.733C29.2115 39.6507 29.2465 39.556 29.2575 39.4571C29.2685 39.3582 29.2551 39.2581 29.2186 39.1655C28.829 38.1592 28.2125 37.2563 27.4171 36.5271C26.6217 35.7979 25.6688 35.2619 24.6325 34.961V25.7607C25.9892 26.2397 27.4173 26.4849 28.8561 26.4859C31.0629 26.4865 33.2309 25.9049 35.1411 24.7996C35.2106 24.7596 35.2715 24.7062 35.3203 24.6426C35.3691 24.579 35.405 24.5064 35.4257 24.429C35.4465 24.3515 35.4518 24.2707 35.4413 24.1913C35.4309 24.1118 35.4048 24.0351 35.3647 23.9657L30.1349 14.9062ZM32.4306 9.53244C32.7661 9.33852 33.1516 9.24844 33.5383 9.27357C33.925 9.2987 34.2955 9.43792 34.6031 9.67363C34.9107 9.90934 35.1415 10.231 35.2663 10.5978C35.3911 10.9647 35.4044 11.3603 35.3044 11.7347C35.2044 12.1091 34.9956 12.4454 34.7045 12.7012C34.4133 12.9569 34.0529 13.1206 33.6688 13.1715C33.2846 13.2225 32.894 13.1584 32.5463 12.9873C32.1985 12.8163 31.9093 12.546 31.7152 12.2106C31.4556 11.7604 31.3852 11.2257 31.5193 10.7236C31.6534 10.2216 31.9811 9.7932 32.4306 9.53244ZM30.5095 12.5301C30.5539 12.6294 30.6034 12.7263 30.6577 12.8206C30.7119 12.9143 30.7708 13.0053 30.8341 13.0932L29.5244 13.849L29.1992 13.2856L30.5095 12.5301ZM27.681 38.7791H17.1513C18.3848 36.6499 20.6102 35.867 22.4162 35.867C24.2222 35.867 26.4475 36.6499 27.681 38.7791ZM23.412 34.7089C22.7507 34.6258 22.0816 34.6258 21.4203 34.7089V24.0781C22.0466 24.5317 22.7134 24.9268 23.412 25.2583V34.7089ZM18.9634 19.5695C15.9254 14.3063 17.5784 7.6 22.6159 4.32382L33.9947 24.0334C28.6382 26.7565 22.0032 24.8331 18.9634 19.5695ZM21.3601 18.1867C21.4004 18.2561 21.4265 18.3327 21.4371 18.4121C21.4477 18.4916 21.4426 18.5723 21.422 18.6498C21.4014 18.7272 21.3658 18.7999 21.3171 18.8636C21.2684 18.9273 21.2077 18.9807 21.1383 19.021C21.069 19.0612 20.9924 19.0873 20.913 19.0979C20.8335 19.1086 20.7528 19.1034 20.6753 19.0828C20.5978 19.0622 20.5252 19.0266 20.4615 18.9779C20.3978 18.9292 20.3443 18.8685 20.3041 18.7991C19.93 18.1536 19.6311 17.4673 19.4131 16.7537C19.3897 16.6771 19.3816 16.5965 19.3893 16.5168C19.397 16.437 19.4203 16.3595 19.4579 16.2887C19.4956 16.2179 19.5468 16.1553 19.6086 16.1043C19.6705 16.0533 19.7418 16.015 19.8184 15.9916C19.8951 15.9681 19.9756 15.96 20.0554 15.9677C20.1352 15.9754 20.2127 15.9987 20.2835 16.0364C20.3542 16.074 20.4169 16.1252 20.4679 16.1871C20.5189 16.2489 20.5572 16.3202 20.5806 16.3969C20.7713 17.0213 21.0328 17.6218 21.3601 18.1867ZM22.4408 7.16982C22.4998 7.22399 22.5477 7.28928 22.5815 7.36195C22.6154 7.43462 22.6346 7.51325 22.638 7.59334C22.6415 7.67343 22.6291 7.75341 22.6017 7.82873C22.5742 7.90405 22.5322 7.97321 22.478 8.03228C21.6471 8.93904 21.019 10.0125 20.6357 11.1812C20.2524 12.3498 20.1227 13.5868 20.2552 14.8095C20.2638 14.8892 20.2567 14.9698 20.2342 15.0467C20.2116 15.1237 20.1742 15.1954 20.1239 15.2578C20.0737 15.3203 20.0116 15.3722 19.9413 15.4107C19.8709 15.4491 19.7937 15.4734 19.714 15.482C19.692 15.4843 19.6698 15.4855 19.6476 15.4856C19.4972 15.4854 19.3522 15.4297 19.2403 15.3291C19.1285 15.2286 19.0577 15.0903 19.0415 14.9408C18.8905 13.5455 19.0386 12.134 19.4761 10.8004C19.9136 9.46683 20.6304 8.24188 21.5787 7.20722C21.6881 7.08803 21.8404 7.01717 22.002 7.0102C22.1637 7.00324 22.3215 7.06048 22.4408 7.16982ZM44.2518 14.1329C43.8749 15.5588 43.2191 16.8958 42.3222 18.0667C41.4252 19.2375 40.3051 20.2188 39.0265 20.9539C38.957 20.9952 38.88 21.0223 38.8 21.0337C38.72 21.045 38.6386 21.0403 38.5604 21.0199C38.4822 20.9995 38.4088 20.9638 38.3445 20.9148C38.2803 20.8658 38.2263 20.8045 38.1859 20.7346C38.1455 20.6646 38.1194 20.5873 38.1091 20.5071C38.0988 20.427 38.1046 20.3456 38.126 20.2676C38.1474 20.1897 38.1841 20.1168 38.2339 20.0532C38.2837 19.9895 38.3457 19.9364 38.4162 19.8969C40.7128 18.5688 42.3881 16.383 43.0738 13.8201C43.7594 11.2573 43.3994 8.52697 42.0728 6.22944C40.7462 3.93191 38.5615 2.25516 35.9991 1.56777C33.4367 0.880371 30.7062 1.23858 28.4077 2.56366C28.3383 2.60437 28.2615 2.63094 28.1818 2.64184C28.102 2.65275 28.0209 2.64777 27.9431 2.6272C27.8653 2.60662 27.7923 2.57086 27.7283 2.52197C27.6644 2.47308 27.6108 2.41202 27.5705 2.34232C27.5303 2.27261 27.5042 2.19564 27.4938 2.11582C27.4835 2.036 27.489 1.95492 27.5101 1.87724C27.5312 1.79957 27.5674 1.72683 27.6167 1.66322C27.666 1.59961 27.7275 1.54638 27.7974 1.50659C29.72 0.395215 31.929 -0.120809 34.1449 0.023838C36.3608 0.168485 38.4841 0.967299 40.2458 2.31917C42.0075 3.67104 43.3286 5.5152 44.0418 7.61821C44.7549 9.72122 44.8278 11.9883 44.2518 14.1329ZM37.6846 18.6314C37.5445 18.7124 37.3779 18.7344 37.2215 18.6926C37.0651 18.6508 36.9318 18.5486 36.8507 18.4084C36.7697 18.2683 36.7477 18.1017 36.7895 17.9453C36.8313 17.7889 36.9336 17.6555 37.0737 17.5745C38.7562 16.6032 39.984 15.0034 40.4869 13.1269C40.9899 11.2504 40.7268 9.25091 39.7555 7.5684C38.7842 5.88588 37.1844 4.65811 35.3079 4.15517C33.4313 3.65224 31.4319 3.91535 29.7494 4.88662C29.68 4.92669 29.6033 4.9527 29.5239 4.96316C29.4444 4.97362 29.3637 4.96833 29.2862 4.94758C29.2088 4.92683 29.1363 4.89104 29.0727 4.84225C29.0091 4.79345 28.9557 4.73261 28.9157 4.6632C28.8756 4.59378 28.8496 4.51716 28.8391 4.43769C28.8286 4.35823 28.8339 4.27748 28.8547 4.20006C28.8754 4.12264 28.9112 4.05006 28.96 3.98648C29.0088 3.92289 29.0697 3.86954 29.1391 3.82946C31.1019 2.69625 33.4346 2.38919 35.6238 2.97584C37.8131 3.56249 39.6796 4.99478 40.8128 6.95764C41.946 8.9205 42.2531 11.2531 41.6664 13.4424C41.0798 15.6316 39.6475 17.4982 37.6846 18.6314ZM36.3419 16.3064C36.2725 16.3465 36.1958 16.3724 36.1164 16.3828C36.0369 16.3932 35.9561 16.3879 35.8787 16.367C35.8013 16.3462 35.7288 16.3104 35.6652 16.2615C35.6017 16.2127 35.5484 16.1518 35.5083 16.0824C35.4683 16.0129 35.4424 15.9363 35.432 15.8568C35.4216 15.7773 35.4269 15.6966 35.4477 15.6192C35.4685 15.5417 35.5044 15.4692 35.5532 15.4056C35.6021 15.3421 35.663 15.2888 35.7324 15.2488C36.7897 14.6289 37.559 13.616 37.8723 12.4311C38.1856 11.2462 38.0175 9.98552 37.4047 8.9241C36.7919 7.86267 35.7842 7.0867 34.6014 6.76553C33.4186 6.44435 32.1568 6.60404 31.0913 7.20975C30.9511 7.29068 30.7845 7.3126 30.6281 7.27068C30.4717 7.22877 30.3384 7.12645 30.2575 6.98624C30.1765 6.84603 30.1546 6.67941 30.1965 6.52304C30.2385 6.36667 30.3408 6.23335 30.481 6.15242C31.8275 5.37513 33.4276 5.16458 34.9293 5.56706C36.431 5.96955 37.7114 6.95211 38.4887 8.2986C39.2659 9.64508 39.4765 11.2452 39.074 12.7469C38.6715 14.2486 37.6884 15.5292 36.3419 16.3064ZM13.6237 22.0913V2.62077C13.6232 2.21128 13.4603 1.81869 13.1708 1.52913C12.8812 1.23957 12.4886 1.0767 12.0791 1.07623H1.54445C1.13496 1.0767 0.742382 1.23957 0.452838 1.52913C0.163295 1.81869 0.00043846 2.21128 0 2.62077L0 22.0913C0.000415343 22.5008 0.163259 22.8934 0.452802 23.183C0.742346 23.4726 1.13494 23.6355 1.54445 23.636H12.0791C12.4887 23.6355 12.8813 23.4726 13.1708 23.183C13.4604 22.8934 13.6232 22.5008 13.6237 22.0913ZM1.22063 5.25508H12.403V19.457H1.22063V5.25508ZM1.54436 2.29704H12.0791C12.1647 2.29815 12.2464 2.33261 12.3069 2.39308C12.3673 2.45355 12.4018 2.53525 12.403 2.62077V4.03427H1.22063V2.62077C1.22176 2.53525 1.25625 2.45355 1.31673 2.39308C1.37722 2.33261 1.45884 2.29815 1.54436 2.29704ZM1.22063 22.0913V20.6778H12.403V22.0913C12.4018 22.1768 12.3673 22.2585 12.3068 22.3189C12.2463 22.3794 12.1646 22.4138 12.0791 22.4149H1.54445C1.45894 22.4138 1.37725 22.3794 1.31676 22.3189C1.25628 22.2585 1.22179 22.1768 1.22063 22.0913ZM18.7542 31.1902H6.81306C6.65119 31.1902 6.49596 31.1259 6.3815 31.0115C6.26704 30.897 6.20274 30.7418 6.20274 30.5799V25.1531C6.20274 25.0729 6.21853 24.9936 6.2492 24.9195C6.27987 24.8455 6.32483 24.7782 6.3815 24.7215C6.43817 24.6648 6.50545 24.6199 6.5795 24.5892C6.65355 24.5585 6.73291 24.5428 6.81306 24.5428C6.89321 24.5428 6.97257 24.5585 7.04662 24.5892C7.12066 24.6199 7.18794 24.6648 7.24462 24.7215C7.30129 24.7782 7.34625 24.8455 7.37692 24.9195C7.40759 24.9936 7.42338 25.0729 7.42338 25.1531V29.9694H18.7542C18.916 29.9694 19.0713 30.0337 19.1857 30.1481C19.3002 30.2626 19.3645 30.4178 19.3645 30.5797C19.3645 30.7415 19.3002 30.8968 19.1857 31.0112C19.0713 31.1257 18.916 31.1902 18.7542 31.1902ZM7.90797 21.5451C7.90797 21.707 7.84367 21.8622 7.72921 21.9767C7.61475 22.0912 7.45952 22.1555 7.29765 22.1555H6.32873C6.16686 22.1555 6.01162 22.0912 5.89717 21.9767C5.78271 21.8622 5.71841 21.707 5.71841 21.5451C5.71841 21.3833 5.78271 21.228 5.89717 21.1136C6.01162 20.9991 6.16686 20.9348 6.32873 20.9348H7.29765C7.45952 20.9348 7.61475 20.9991 7.72921 21.1136C7.84367 21.228 7.90797 21.3833 7.90797 21.5451ZM5.71832 3.16422C5.71832 3.00235 5.78262 2.84711 5.89708 2.73266C6.01154 2.6182 6.16677 2.5539 6.32864 2.5539H7.29765C7.45952 2.5539 7.61475 2.6182 7.72921 2.73266C7.84367 2.84711 7.90797 3.00235 7.90797 3.16422C7.90797 3.32608 7.84367 3.48132 7.72921 3.59578C7.61475 3.71023 7.45952 3.77453 7.29765 3.77453H6.32873C6.24857 3.77454 6.1692 3.75877 6.09514 3.7281C6.02109 3.69743 5.95379 3.65248 5.89711 3.59581C5.84043 3.53913 5.79547 3.47185 5.76479 3.39779C5.73411 3.32374 5.71832 3.24437 5.71832 3.16422ZM7.60612 9.4592L3.9117 15.86C3.87162 15.9295 3.81827 15.9903 3.75468 16.0391C3.69108 16.0879 3.6185 16.1237 3.54108 16.1445C3.46365 16.1652 3.38289 16.1705 3.30341 16.1601C3.22394 16.1496 3.1473 16.1236 3.07787 16.0835C3.00845 16.0435 2.9476 15.9901 2.89879 15.9265C2.84999 15.8629 2.81418 15.7903 2.79343 15.7129C2.77267 15.6355 2.76737 15.5547 2.77783 15.4753C2.78829 15.3958 2.81429 15.3191 2.85437 15.2497L6.54879 8.84941C6.62972 8.7092 6.76304 8.60688 6.91941 8.56496C7.07579 8.52305 7.2424 8.54497 7.38261 8.6259C7.52283 8.70683 7.62514 8.84015 7.66706 8.99652C7.70897 9.1529 7.68705 9.31899 7.60612 9.4592ZM10.7717 9.4592L7.07733 15.86C7.03725 15.9295 6.9839 15.9903 6.9203 16.0391C6.85671 16.0879 6.78413 16.1237 6.7067 16.1445C6.62928 16.1652 6.54852 16.1705 6.46904 16.1601C6.38957 16.1496 6.31293 16.1236 6.2435 16.0835C6.17408 16.0435 6.11322 15.9901 6.06442 15.9265C6.01561 15.8629 5.97981 15.7903 5.95906 15.7129C5.9383 15.6355 5.933 15.5547 5.94346 15.4753C5.95391 15.3958 5.97992 15.3191 6.01999 15.2497L9.71442 8.84941C9.79535 8.7092 9.92867 8.60688 10.085 8.56496C10.2414 8.52305 10.408 8.54497 10.5482 8.6259C10.6885 8.70683 10.7908 8.84015 10.8327 8.99652C10.8746 9.1529 10.8527 9.31899 10.7717 9.4592Z" fill="var(--fill-0, #2C1D44)"/>
</g>
</svg>
